<svg width="24" height="24" viewBox="0 0 24 24" fill="none" xmlns="http://www.w3.org/2000/svg">
<path d="M8.31798 2.07525C8.07598 1.99525 7.81599 1.98323 7.56799 2.10723C7.07499 2.35423 6.85297 2.95722 7.09997 3.45122L7.76199 4.76824C7.55699 4.97524 7.35398 5.21322 7.17898 5.45122C6.68798 6.11922 7.15097 7.07324 7.97997 7.05624C8.06997 7.04724 8.60897 7.05223 9.26397 7.17123C9.89797 7.28823 10.693 7.49925 11.278 7.78225C11.32 7.80225 11.527 7.89924 11.568 7.91924C11.85 8.06024 12.162 8.06024 12.444 7.91924C13.212 7.53524 14.039 7.28324 14.881 7.13824C15.334 7.06024 15.782 7.01222 16.022 7.00722C16.39 6.99822 16.719 6.78022 16.881 6.45122C17.084 6.03722 16.967 5.70724 16.912 5.60024C16.724 5.24024 16.535 5.06122 16.236 4.77422L16.912 3.45122C17.159 2.95722 16.9369 2.35423 16.4439 2.10723C16.1969 1.98323 15.9359 1.99425 15.6939 2.07525C15.4509 2.15625 15.223 2.32925 15.1 2.57525L14.589 3.60525C13.793 3.21925 12.904 3.01323 12.006 3.01323C11.094 3.01323 10.199 3.23222 9.40596 3.60622L8.91198 2.57525C8.78898 2.32925 8.56098 2.15625 8.31798 2.07525ZM4.00598 7.01324C3.45398 7.01324 3.00598 7.46124 3.00598 8.01324C3.00598 9.56524 4.45398 11.0132 6.00598 11.0132V13.0132H4.00598C3.45398 13.0132 3.00598 13.4612 3.00598 14.0132C3.00598 14.5652 3.45398 15.0132 4.00598 15.0132H6.00598C6.00598 15.7202 6.13696 16.3922 6.36196 17.0222C6.21896 17.0222 6.41198 17.0132 6.00598 17.0132C4.45398 17.0132 3.00598 18.4612 3.00598 20.0132C3.00598 20.5652 3.45398 21.0132 4.00598 21.0132C4.55798 21.0132 5.00598 20.5652 5.00598 20.0132C5.00598 19.5652 5.55798 19.0132 6.00598 19.0132C7.00597 19.0132 7.32998 19.0302 7.54098 19.0172C8.68898 20.2552 10.162 21.0132 12.006 21.0132C13.85 21.0132 15.394 20.2152 16.489 19.0122C16.783 19.0282 17.006 19.0132 18.006 19.0132C18.454 19.0132 19.006 19.5652 19.006 20.0132C19.006 20.5652 19.454 21.0132 20.006 21.0132C20.558 21.0132 21.006 20.5652 21.006 20.0132C21.006 18.4612 19.558 17.0132 18.006 17.0132C17.6 17.0132 17.8 17.0092 17.657 17.0092C17.881 16.3782 18.006 15.7202 18.006 15.0132H20.006C20.558 15.0132 21.006 14.5652 21.006 14.0132C21.006 13.4612 20.558 13.0132 20.006 13.0132H18.006V11.0132C19.558 11.0132 21.006 9.56524 21.006 8.01324C21.006 7.46124 20.558 7.01324 20.006 7.01324C19.454 7.01324 19.006 7.46124 19.006 8.01324C19.006 8.46124 18.454 9.01324 18.006 9.01324C17.624 9.01324 16.211 9.01324 16.006 9.01324C14.006 9.01324 13.006 10.0132 13.006 12.0132C13.006 14.6232 13.006 17.0132 13.006 17.0132C13.006 17.5652 12.558 18.0132 12.006 18.0132C11.454 18.0132 11.006 17.5652 11.006 17.0132C11.006 17.0132 11.006 14.0132 11.006 12.0132C11.006 10.0132 10.006 9.01324 8.00597 9.01324C7.00597 9.01324 6.41598 9.01324 6.00598 9.01324C5.55798 9.01324 5.00598 8.46124 5.00598 8.01324C5.00598 7.46124 4.55798 7.01324 4.00598 7.01324Z" fill="#5865F1"/>
</svg>
