<svg width="24" height="24" viewBox="0 0 24 24" fill="none" xmlns="http://www.w3.org/2000/svg">
<path d="M7.59032 1.9989C5.63932 1.9989 4.02832 3.4789 4.02832 5.34291V18.655C4.02832 20.519 5.63932 21.999 7.59032 21.999H16.4663C18.4173 21.999 20.0283 20.519 20.0283 18.655C20.0283 18.004 20.0283 10.8569 20.0283 8.99892C20.0283 8.98892 20.0283 8.97792 20.0283 8.96792C20.0283 5.40491 16.5893 1.9989 13.0283 1.9989C8.81432 1.9989 8.80432 1.9989 7.59032 1.9989ZM14.0283 4.12391C15.8003 4.59391 17.4443 6.23191 17.9033 7.99892H15.5903C14.7013 7.99892 14.0283 7.36892 14.0283 6.65492V4.12391ZM9.02832 7.99892H10.0283C10.5803 7.99892 11.0283 8.44692 11.0283 8.99892C11.0283 9.55092 10.5803 9.99893 10.0283 9.99893H9.02832C8.47632 9.99893 8.02832 9.55092 8.02832 8.99892C8.02832 8.44692 8.47632 7.99892 9.02832 7.99892ZM9.02832 11.9989H15.0283C15.5803 11.9989 16.0283 12.4469 16.0283 12.9989C16.0283 13.5509 15.5803 13.9989 15.0283 13.9989H9.02832C8.47632 13.9989 8.02832 13.5509 8.02832 12.9989C8.02832 12.4469 8.47632 11.9989 9.02832 11.9989ZM9.02832 15.9989H15.0283C15.5803 15.9989 16.0283 16.4469 16.0283 16.9989C16.0283 17.5509 15.5803 17.999 15.0283 17.999H9.02832C8.47632 17.999 8.02832 17.5509 8.02832 16.9989C8.02832 16.4469 8.47632 15.9989 9.02832 15.9989Z" fill="#51E8D7"/>
</svg>
