<svg width="24" height="24" viewBox="0 0 24 24" fill="none" xmlns="http://www.w3.org/2000/svg">
<path d="M11.9973 1.95319C8.13125 1.95319 4.99725 5.08719 4.99725 8.95319C4.99725 10.1912 5.33124 11.3702 5.93524 12.4222C5.94624 12.4422 7.82925 15.4012 7.99725 15.9532H15.9973C16.1623 15.4042 18.0393 12.4662 18.0283 12.4842C18.6513 11.4212 18.9973 10.2112 18.9973 8.95319C18.9973 5.08719 15.8633 1.95319 11.9973 1.95319ZM11.9973 5.95319C12.5493 5.95319 12.9973 6.40119 12.9973 6.95319C12.9973 7.50519 12.5493 7.95319 11.9973 7.95319C11.4453 7.95319 10.9973 8.40119 10.9973 8.95319C10.9973 9.50519 10.5493 9.95319 9.99725 9.95319C9.44525 9.95319 8.99725 9.50519 8.99725 8.95319C8.99725 7.29619 10.3403 5.95319 11.9973 5.95319ZM7.99725 17.9532C7.99725 20.1622 9.78825 21.9532 11.9973 21.9532C14.2063 21.9532 15.9973 20.1622 15.9973 17.9532H7.99725Z" fill="#FF9800"/>
</svg>
