<svg width="24" height="24" viewBox="0 0 24 24" fill="none" xmlns="http://www.w3.org/2000/svg">
<path d="M2.22277 14.2359C3.25587 18.7449 7.28627 21.9859 11.9728 21.9859C12.7009 21.9859 13.5865 21.8779 14.3478 21.7049C14.9913 21.5579 15.3153 20.8489 15.004 20.2669C14.787 19.8609 14.2036 18.7059 13.379 17.0479C13.3677 17.0259 11.6556 13.6019 11.629 13.5479C11.4604 13.2069 11.1041 12.9859 10.7228 12.9859C10.6598 12.9859 3.84597 13.0099 3.19157 13.0169C2.55337 13.0239 2.08027 13.6139 2.22277 14.2359ZM2.22277 9.7359C2.08007 10.3569 2.55427 10.9459 3.19157 10.9549C3.89777 10.9639 9.71527 10.9859 10.7853 10.9859C11.1821 10.9819 11.4037 10.9439 11.6916 10.3919C11.7311 10.3219 13.2468 7.17591 13.5666 6.51691C13.6337 6.37891 14.679 4.3339 15.004 3.7359C15.32 3.1549 14.9928 2.41491 14.3478 2.26691C13.5815 2.09091 12.7098 1.9859 11.9728 1.9859C7.28827 1.9859 3.25787 5.2289 2.22277 9.7359ZM13.3166 12.4239C13.3434 12.4779 16.7356 19.3679 16.7853 19.4549C17.0918 19.9909 17.8065 20.1259 18.2853 19.7359C20.6029 17.8489 21.9728 15.0329 21.9728 11.9859C21.9728 8.9289 20.5849 6.09089 18.254 4.20489C17.7654 3.80889 17.0493 3.96191 16.754 4.51691C16.6823 4.65191 13.3433 11.4939 13.3166 11.5479C13.1809 11.8259 13.1799 12.1459 13.3166 12.4239Z" fill="#5865F1"/>
</svg>
