<svg width="24" height="24" viewBox="0 0 24 24" fill="none" xmlns="http://www.w3.org/2000/svg">
<path d="M16.9907 2.92975C16.6357 2.92975 16.2687 3.12375 16.0847 3.49225C15.6477 4.36495 15.5137 4.65205 15.3347 4.92975C15.0437 5.37975 14.8047 5.55915 14.1787 5.80475C14.0367 5.86025 13.8697 5.92855 13.6787 5.99225C12.8327 6.27395 12.7567 7.43754 13.5537 7.83594C14.3977 8.25804 14.6297 8.39725 14.8657 8.55475C15.0897 8.70375 15.2167 8.83125 15.3657 9.05475C15.5237 9.29095 15.6627 9.52325 16.0847 10.3678C16.4527 11.1048 17.5287 11.1048 17.8967 10.3678C18.3187 9.52325 18.4587 9.29105 18.6157 9.05475C18.7647 8.83125 18.8927 8.70375 19.1157 8.55475C19.3517 8.39725 19.5847 8.25794 20.4287 7.83594C21.1657 7.46744 21.1657 6.39205 20.4287 6.02355C19.5847 5.60145 19.3517 5.46225 19.1157 5.30475C18.8927 5.15575 18.7647 5.02825 18.6157 4.80475C18.4587 4.56855 18.3187 4.33625 17.8967 3.49225C17.7127 3.12375 17.3457 2.92975 16.9907 2.92975ZM6.99073 4.92975C6.63573 4.92975 6.26874 5.12375 6.08474 5.49225C5.79974 6.06125 5.72573 6.22805 5.61573 6.39855C5.46073 6.63755 5.34573 6.72805 4.99073 6.86725C4.90173 6.90195 4.80073 6.95145 4.67873 6.99225C3.83273 7.27395 3.75673 8.43754 4.55373 8.83594C5.10073 9.10984 5.25573 9.17955 5.39673 9.27355C5.50973 9.34845 5.57173 9.41115 5.64673 9.52355C5.74073 9.66445 5.81074 9.81955 6.08474 10.3678C6.45274 11.1048 7.52873 11.1048 7.89673 10.3678C8.17073 9.81955 8.24073 9.66445 8.33473 9.52355C8.40973 9.41115 8.47173 9.34845 8.58473 9.27355C8.72573 9.17955 8.88073 9.10984 9.42873 8.83594C10.1657 8.46744 10.1657 7.39205 9.42873 7.02355C8.88073 6.74965 8.72573 6.67994 8.58473 6.58594C8.47173 6.51104 8.40973 6.44834 8.33473 6.33594C8.24073 6.19504 8.17073 6.03995 7.89673 5.49225C7.71273 5.12375 7.34573 4.92975 6.99073 4.92975ZM11.9907 10.9297C11.5927 10.9297 11.2057 11.1618 11.0537 11.6178C10.3527 13.7188 9.77973 14.2917 7.67873 14.9917C6.76673 15.2957 6.76673 16.5638 7.67873 16.8678C9.77973 17.5678 10.3527 18.1407 11.0537 20.2417C11.3567 21.1537 12.6247 21.1537 12.9287 20.2417C13.6287 18.1407 14.2017 17.5678 16.3037 16.8678C17.2147 16.5638 17.2147 15.2957 16.3037 14.9917C14.2017 14.2917 13.6287 13.7188 12.9287 11.6178C12.7767 11.1618 12.3887 10.9297 11.9907 10.9297Z" fill="#FF9800"/>
</svg>
