<svg width="24" height="24" viewBox="0 0 24 24" fill="none" xmlns="http://www.w3.org/2000/svg">
<path d="M11.9989 2.01416C11.5509 2.01416 10.7699 3.08415 10.1239 4.98315C9.83391 5.83715 9.55991 6.89316 9.37391 7.88916C10.2369 7.97116 11.1709 8.01416 11.9989 8.01416C12.8269 8.01416 13.7609 7.97116 14.6239 7.88916C14.4379 6.89316 14.1639 5.83715 13.8739 4.98315C13.2279 3.08415 12.4469 2.01416 11.9989 2.01416ZM9.02992 2.45215C6.72191 3.12115 4.81192 4.74517 3.56092 6.67017C4.40092 6.97717 6.13391 7.43715 7.37391 7.60815C7.71191 5.66915 8.25292 3.86015 9.02992 2.45215ZM14.9679 2.48315C15.6729 3.82215 16.2859 5.70016 16.6239 7.63916C17.8929 7.42916 19.4549 7.01717 20.4369 6.67017C19.1789 4.66517 17.2019 3.18715 14.9679 2.48315ZM2.65491 8.45215C2.21591 9.62315 1.9989 10.6992 1.9989 12.0142C1.9989 13.3292 2.19991 14.4012 2.65491 15.5762C4.01491 15.0502 5.45091 14.6822 7.12391 14.4202C7.05091 13.6282 6.99891 12.8152 6.99891 12.0142C6.99891 11.2132 7.05091 10.4002 7.12391 9.60815C5.37791 9.33115 4.01891 8.98015 2.65491 8.45215ZM21.3429 8.45215C20.0119 8.99115 18.6199 9.36316 16.8739 9.63916C16.9469 10.4322 16.9989 11.2132 16.9989 12.0142C16.9989 12.8152 16.9469 13.6282 16.8739 14.4202C18.6549 14.7032 19.9999 15.0612 21.3429 15.5762C21.7819 14.4692 21.9989 13.3292 21.9989 12.0142C21.9989 10.6992 21.7949 9.64815 21.3429 8.45215ZM9.09291 9.88916C9.01691 10.6372 8.99891 11.2942 8.99891 12.0142C8.99891 12.7342 9.01691 13.3912 9.09291 14.1392C10.0269 14.0532 11.0499 14.0142 11.9989 14.0142C12.9479 14.0142 13.9709 14.0532 14.9049 14.1392C14.9809 13.3912 14.9989 12.7342 14.9989 12.0142C14.9989 11.2942 14.9809 10.6372 14.9049 9.88916C13.9709 9.97516 12.9479 10.0142 11.9989 10.0142C11.0499 10.0142 10.0269 9.97516 9.09291 9.88916ZM11.9989 16.0142C11.1709 16.0142 10.2369 16.0572 9.37391 16.1392C9.55991 17.1352 9.83391 18.1912 10.1239 19.0452C10.7699 20.9442 11.5509 22.0142 11.9989 22.0142C12.4469 22.0142 13.2279 20.9442 13.8739 19.0452C14.1639 18.1912 14.4069 17.1662 14.5929 16.1702C13.7299 16.0882 12.8269 16.0142 11.9989 16.0142ZM7.37391 16.3892C6.19391 16.5982 4.42492 17.0372 3.56092 17.3582C4.81192 19.2832 6.62891 20.8042 9.02992 21.5762C8.28392 20.2022 7.71191 18.3282 7.37391 16.3892ZM16.6239 16.3892C16.2859 18.3282 15.6729 20.2372 14.9679 21.5762C17.2869 20.8692 19.2349 19.2632 20.4369 17.3582C19.6009 17.0422 17.7919 16.5892 16.6239 16.3892Z" fill="#1ABC9C"/>
</svg>
