<svg width="24" height="24" viewBox="0 0 24 24" fill="none" xmlns="http://www.w3.org/2000/svg">
<path d="M18.003 2.99072C16.9793 2.99072 15.9104 3.41071 15.1293 4.19171L9.503 9.83472C8.6168 10.7207 8.2463 11.8587 8.3656 13.0147C8.2251 13.0007 8.1474 12.9907 8.003 12.9907C6.1279 12.9947 4.9994 13.8467 3.878 15.8657C3.8177 15.9737 3.4295 16.7237 3.3467 16.8657C2.9932 17.4717 2.6592 17.8967 2.2842 18.2717C1.8016 18.7547 1.955 19.5917 2.5655 19.8967C2.8683 20.0487 3.3777 20.2537 4.0967 20.4597C5.2759 20.7967 6.5926 20.9907 8.003 20.9907C10.2121 20.9907 12.003 19.1997 12.003 16.9907C12.003 16.8357 11.9924 16.7637 11.9752 16.6127C13.096 16.7407 14.266 16.3837 15.1592 15.4907L20.7946 9.86273C22.3567 8.30073 22.4166 5.75173 20.8545 4.18973C20.0735 3.40873 19.0267 2.99072 18.003 2.99072ZM10.8834 11.2837L13.7186 14.1047C12.8842 14.8287 11.7156 14.8367 10.9208 14.0567C10.1578 13.3077 10.1818 12.0067 10.8834 11.2837Z" fill="#447AFB"/>
</svg>
