<svg width="500" height="500" viewBox="0 0 500 500" fill="none" xmlns="http://www.w3.org/2000/svg">
<rect width="500" height="500" rx="250" fill="#333333"/>
<path fill-rule="evenodd" clip-rule="evenodd" d="M306.046 170.826V129.852C306.031 125.769 304.867 121.771 302.685 118.308C300.503 114.846 297.391 112.056 293.698 110.254C290.005 108.451 285.878 107.707 281.782 108.104C277.686 108.502 273.783 110.027 270.512 112.506L90.0244 247.36C87.2466 249.339 84.9807 251.942 83.4121 254.957C81.8435 257.972 81.0169 261.313 81 264.706V358H118.79V272.54L267.692 161.187V199.854L202.535 249.169C199.757 251.174 197.491 253.812 195.923 256.866C194.354 259.92 193.528 263.304 193.511 266.741V358H231.301V274.676L380.203 161.878V357.433H418.557V130.136C418.542 126 417.377 121.95 415.196 118.442C413.014 114.935 409.902 112.109 406.209 110.283C402.516 108.457 398.389 107.703 394.293 108.106C390.197 108.509 386.294 110.053 383.023 112.564L306.046 170.826ZM304.402 357.994V262.54L270.281 288.655C268.797 289.791 267.927 291.552 267.927 293.42V357.994H304.402Z" fill="white"/>
</svg>
