<svg width="112" height="35" viewBox="0 0 112 35" fill="none" xmlns="http://www.w3.org/2000/svg">
<path d="M112 17.9073L104.107 32.7188L3.375 32.7188C1.50845 33.2181 0.788974 33.7315 0 35L-1.5299e-06 0C0.0788223 2.48867 1.4624 2.96664 3.375 3.09585L104.107 3.09585L112 17.9073Z" fill="#1AAB9B"/>
<path fill-rule="evenodd" clip-rule="evenodd" d="M23.2556 13.2719V10.4859C23.2546 10.2082 23.1757 9.93637 23.0278 9.70094C22.8799 9.4655 22.6689 9.27582 22.4186 9.15324C22.1682 9.03066 21.8885 8.98004 21.6108 9.0071C21.3331 9.03415 21.0685 9.1378 20.8468 9.30637L8.61176 18.476C8.42345 18.6105 8.26984 18.7876 8.16351 18.9926C8.05718 19.1976 8.00115 19.4247 8 19.6554V25.9991H10.5617V20.1881L20.6557 12.6165V15.2458L16.2388 18.599C16.0505 18.7353 15.8969 18.9147 15.7905 19.1224C15.6842 19.33 15.6282 19.5601 15.627 19.7938V25.9991H18.1887V20.3334L28.2827 12.6635V25.9606H30.8826V10.5052C30.8816 10.2239 30.8027 9.94854 30.6548 9.71005C30.5069 9.47156 30.2959 9.27941 30.0456 9.15524C29.7953 9.03107 29.5155 8.97978 29.2378 9.00719C28.9601 9.03459 28.6956 9.1396 28.4739 9.31036L23.2556 13.2719ZM23.1442 25.9988V19.5082L23.0179 19.6052C21.5387 20.7408 20.6716 22.4996 20.6716 24.3644V25.9988H23.1442Z" fill="white"/>
<path d="M41.9891 10.048C41.9891 9.46922 42.4524 9 43.0239 9C43.3934 9 43.7349 9.1996 43.9198 9.52366L46.1383 13.4118L48.4069 9.49381C48.584 9.18792 48.9079 9 49.2581 9C49.803 9 50.2448 9.44743 50.2448 9.99936V16.6279H48.9008V10.9356L47.0784 13.9356C46.872 14.2753 46.5063 14.4823 46.1124 14.4823C45.7176 14.4823 45.3513 14.2744 45.1452 13.9334L43.333 10.9356V16.6279H41.9891V10.048Z" fill="white"/>
<path d="M55.4435 9.69217C55.608 9.27421 56.0074 9 56.4517 9C56.8962 9 57.2957 9.27451 57.4601 9.6928L60.1851 16.6279H58.8038L57.9558 14.6715H54.8626L54.0147 16.6279H52.7134L55.4435 9.69217ZM57.4865 13.4226L56.4092 10.5733L55.3266 13.4226H57.4865Z" fill="white"/>
<path d="M63.8216 12.5197L67.0994 9.1814C67.2134 9.06529 67.3684 9 67.5301 9C68.0717 9 68.3425 9.66371 67.9589 10.051L65.3576 12.6765L69.1921 16.6279H67.4482L63.8216 12.963V16.6279H62.4777V9.68058C62.4777 9.30471 62.7785 9 63.1497 9C63.5208 9 63.8216 9.30471 63.8216 9.68058V12.5197Z" fill="white"/>
<path d="M72.6064 16.6279C71.9356 16.6279 71.3917 16.0771 71.3917 15.3976V10.2303C71.3917 9.55083 71.9356 9 72.6064 9H76.0896C76.4316 9 76.7088 9.28079 76.7088 9.62717C76.7088 9.97354 76.4316 10.2543 76.0896 10.2543H72.741V12.098H75.7963C76.1383 12.098 76.4155 12.3788 76.4155 12.7252C76.4155 13.0715 76.1383 13.3523 75.7963 13.3523H72.741V15.4285H76.1167C76.4437 15.4285 76.7088 15.697 76.7088 16.0282C76.7088 16.3594 76.4437 16.6279 76.1167 16.6279H72.6064Z" fill="white"/>
<path d="M85.8195 11.2005C85.8195 11.4456 85.7893 11.6799 85.7288 11.9034C85.672 12.1232 85.5795 12.3359 85.4515 12.5413C85.3271 12.7468 85.1546 12.9306 84.9342 13.0928C84.7173 13.255 84.4596 13.3812 84.1609 13.4713L86.4488 16.6279H84.6996L82.577 13.7038H81.2917V16.6279H79.9477V10.2303C79.9477 9.55083 80.4916 9 81.1625 9H83.1743C83.3343 9 83.48 9.00541 83.6116 9.01622C83.7467 9.02343 83.9085 9.04506 84.0969 9.0811C84.2889 9.11354 84.4578 9.15859 84.6036 9.21626C84.7529 9.27394 84.9058 9.35864 85.0622 9.47038C85.2222 9.58211 85.3538 9.71367 85.4569 9.86506C85.5635 10.0128 85.6506 10.2021 85.7182 10.4328C85.7857 10.6598 85.8195 10.9157 85.8195 11.2005ZM81.2917 10.2489V12.4494H82.529C82.7423 12.4494 82.9307 12.4422 83.0943 12.4278C83.2578 12.4134 83.4267 12.3845 83.6009 12.3413C83.7751 12.2944 83.9174 12.2314 84.0276 12.1521C84.1414 12.0728 84.2338 11.9628 84.3049 11.8223C84.3796 11.6817 84.4169 11.5159 84.4169 11.3248C84.4169 10.6076 83.8711 10.2489 82.7796 10.2489H81.2917Z" fill="white"/>
<path d="M55.1192 25.9992C54.4664 26.0064 53.8232 25.8397 53.2538 25.5158C52.6958 25.1979 52.232 24.7341 51.9107 24.1727C51.5787 23.5761 51.4085 22.9009 51.4173 22.2159C51.4058 21.5347 51.574 20.8628 51.9044 20.2696C52.2247 19.7025 52.6911 19.2346 53.2538 18.916C53.8232 18.5921 54.4664 18.4255 55.1192 18.4326C55.6016 18.4299 56.0798 18.5234 56.5266 18.7079C56.9679 18.8803 57.3699 19.1421 57.7081 19.4772C57.7766 19.5392 57.8307 19.6159 57.8666 19.7017C57.9024 19.7874 57.9191 19.8802 57.9153 19.9732C57.916 20.0629 57.899 20.1517 57.8656 20.2347C57.8322 20.3177 57.7828 20.3931 57.7205 20.4567C57.6586 20.521 57.5844 20.5717 57.5024 20.6057C57.4204 20.6396 57.3324 20.6562 57.2438 20.6542C57.0624 20.6542 56.888 20.5835 56.7567 20.4567C56.5505 20.2463 56.3035 20.0817 56.0312 19.9732C55.761 19.855 55.4695 19.7949 55.1752 19.7967C54.7677 19.794 54.3672 19.9037 54.0165 20.1141C53.6689 20.3188 53.3824 20.6151 53.1875 20.9716C52.9808 21.3584 52.8765 21.7929 52.8848 22.2327C52.8765 22.6726 52.9808 23.107 53.1875 23.4938C53.3824 23.8504 53.6689 24.1467 54.0165 24.3514C54.3652 24.5563 54.7619 24.6622 55.1648 24.6583C55.4579 24.6599 55.7486 24.6042 56.0209 24.4943C56.292 24.378 56.5384 24.2096 56.7463 23.9983C56.8777 23.8715 57.0521 23.8008 57.2334 23.8007C57.322 23.7988 57.41 23.8153 57.492 23.8493C57.574 23.8833 57.6483 23.934 57.7101 23.9983C57.7734 24.0611 57.8234 24.1364 57.8569 24.2195C57.8904 24.3027 57.9068 24.3919 57.905 24.4817C57.9087 24.5748 57.8921 24.6675 57.8562 24.7533C57.8204 24.8391 57.7662 24.9157 57.6977 24.9777C57.3583 25.314 56.9568 25.579 56.5163 25.7575C56.0697 25.9264 55.5958 26.0084 55.1192 25.9992V25.9992Z" fill="white"/>
<path d="M71.7176 18.4194C72.3621 18.4104 72.9976 18.5735 73.5603 18.8923C74.1089 19.201 74.5623 19.658 74.8702 20.2123C75.1935 20.8003 75.358 21.4645 75.3469 22.1376C75.358 22.8107 75.1935 23.4749 74.8702 24.0629C74.5623 24.6172 74.1089 25.0741 73.5603 25.3828C72.9976 25.7017 72.3621 25.8648 71.7176 25.8558H70.018C69.9217 25.8585 69.8259 25.8413 69.7364 25.8051C69.647 25.769 69.5657 25.7147 69.4977 25.6456C69.4279 25.5773 69.3725 25.4953 69.3351 25.4046C69.2977 25.3139 69.2789 25.2163 69.2801 25.118V19.1782C69.2774 19.0796 69.2954 18.9816 69.333 18.8907C69.3705 18.7997 69.4266 18.7179 69.4977 18.6506C69.5657 18.5815 69.647 18.5272 69.7364 18.4911C69.8259 18.4549 69.9217 18.4377 70.018 18.4404L71.7176 18.4194ZM71.7176 24.4917C72.1061 24.4984 72.4887 24.395 72.8224 24.1932C73.1511 23.9988 73.418 23.7128 73.5913 23.3693C73.7846 22.9888 73.8815 22.5655 73.8732 22.1376C73.8822 21.713 73.7852 21.2929 73.5913 20.9164C73.4217 20.5659 73.1543 20.2736 72.8224 20.0757C72.4887 19.8739 72.1061 19.7705 71.7176 19.7772H70.7538V24.4854L71.7176 24.4917Z" fill="white"/>
<path d="M99.171 25.8367V22.7114L97.2537 19.4347C97.1822 19.3196 97.1448 19.1861 97.1459 19.05C97.1448 18.9236 97.1739 18.7988 97.2309 18.6864C97.2962 18.5694 97.3896 18.4711 97.5024 18.4006C97.6174 18.3311 97.748 18.2927 97.8817 18.2892C98.0076 18.2879 98.1312 18.3229 98.2382 18.39C98.3538 18.4464 98.4489 18.5383 98.5098 18.6528L99.9068 21.175L101.316 18.6528C101.375 18.5408 101.465 18.4492 101.575 18.39C101.687 18.3238 101.815 18.2889 101.944 18.2892C102.078 18.2927 102.209 18.3311 102.324 18.4006C102.434 18.4698 102.524 18.5687 102.583 18.6864C102.647 18.7963 102.681 18.9221 102.68 19.05C102.681 19.1861 102.644 19.3196 102.572 19.4347L100.645 22.7114V25.8367H99.171Z" fill="white"/>
<path d="M79.215 25.863C78.5422 25.863 77.9968 25.316 77.9968 24.6414V19.5107C77.9968 18.836 78.5422 18.2891 79.215 18.2891H82.708C83.051 18.2891 83.329 18.5679 83.329 18.9118C83.329 19.2558 83.051 19.5346 82.708 19.5346H79.3499V21.3652H82.4139C82.7568 21.3652 83.0349 21.644 83.0349 21.9879C83.0349 22.3318 82.7568 22.6106 82.4139 22.6106H79.3499V24.672H82.7352C83.0632 24.672 83.329 24.9386 83.329 25.2675C83.329 25.5964 83.0632 25.863 82.7352 25.863H79.215Z" fill="white"/>
<path d="M62.4423 18.9764C62.6073 18.5614 63.0079 18.2891 63.4534 18.2891C63.8991 18.2891 64.2998 18.5617 64.4647 18.977L67.1974 25.863H65.8122L64.9618 23.9205H61.8598L61.0095 25.863H59.7045L62.4423 18.9764ZM64.4912 22.6804L63.4108 19.8513L62.3251 22.6804H64.4912Z" fill="white"/>
<path d="M44.68 18.9764C44.8449 18.5614 45.2455 18.2891 45.691 18.2891C46.1368 18.2891 46.5375 18.5617 46.7023 18.977L49.435 25.863H48.0498L47.1994 23.9205H44.0975L43.2471 25.863H41.9421L44.68 18.9764ZM46.7288 22.6804L45.6485 19.8513L44.5628 22.6804H46.7288Z" fill="white"/>
<path d="M85.9987 19.3297C85.9987 18.755 86.4633 18.2891 87.0364 18.2891C87.407 18.2891 87.7494 18.4873 87.9348 18.8091L90.1596 22.6697L92.4346 18.7794C92.6123 18.4757 92.9371 18.2891 93.2882 18.2891C93.8347 18.2891 94.2777 18.7334 94.2777 19.2814V25.863H92.93V20.211L91.1024 23.1897C90.8954 23.5271 90.5287 23.7326 90.1337 23.7326C89.7378 23.7326 89.3704 23.5261 89.1637 23.1876L87.3464 20.211V25.863H85.9987V19.3297Z" fill="white"/>
</svg>
