<svg width="130" height="35" viewBox="0 0 130 35" fill="none" xmlns="http://www.w3.org/2000/svg">
<path d="M130 17.9073L122.107 32.7188L3.375 32.7188C1.50845 33.2181 0.788974 33.7315 0 35L-1.5299e-06 0C0.0788223 2.48867 1.4624 2.96664 3.375 3.09585L122.107 3.09584L130 17.9073Z" fill="#333333"/>
<path d="M44.8844 14.3465H46.2384C46.2642 14.5353 46.3716 14.6893 46.5604 14.8083C46.7518 14.9273 46.9807 14.9868 47.2471 14.9868C47.5212 14.9868 47.7424 14.9325 47.9105 14.8238C48.0786 14.7126 48.1627 14.5716 48.1627 14.4008C48.1627 14.2456 48.0967 14.1253 47.9648 14.0399C47.8355 13.9519 47.6105 13.8743 47.2898 13.807L46.5565 13.6634C46.0418 13.5651 45.6525 13.3801 45.3887 13.1085C45.1249 12.8342 44.993 12.4836 44.993 12.0567C44.993 11.5186 45.1999 11.0865 45.6138 10.7605C46.0302 10.4345 46.5656 10.2715 47.2199 10.2715C47.9131 10.2715 48.4575 10.4281 48.8533 10.7411C49.2516 11.0516 49.4546 11.472 49.4624 12.0024H48.151C48.1381 11.8006 48.0476 11.6415 47.8795 11.5251C47.7113 11.4086 47.4967 11.3504 47.2354 11.3504C46.9871 11.3504 46.7867 11.4022 46.6341 11.5057C46.4841 11.6091 46.4091 11.7463 46.4091 11.917C46.4091 12.0671 46.4737 12.1887 46.6031 12.2818C46.735 12.3724 46.9484 12.4474 47.2432 12.5069L47.9687 12.6428C48.5196 12.7488 48.9244 12.9312 49.183 13.19C49.4417 13.4487 49.571 13.7993 49.571 14.2417C49.571 14.7979 49.3576 15.2417 48.9309 15.5728C48.5041 15.9014 47.9299 16.0657 47.2083 16.0657C46.4918 16.0657 45.9267 15.9143 45.5129 15.6116C45.1016 15.3089 44.8921 14.8872 44.8844 14.3465Z" fill="white"/>
<path d="M54.5 11.6493V15.9687H53.1615V15.1537H53.1344C53.0361 15.4357 52.8706 15.6543 52.6378 15.8096C52.4076 15.9648 52.1308 16.0424 51.8075 16.0424C51.3342 16.0424 50.9514 15.8975 50.6592 15.6078C50.3669 15.318 50.2208 14.9221 50.2208 14.4202V11.6493H51.5942V14.1175C51.5942 14.3736 51.6627 14.5716 51.7998 14.7113C51.9394 14.851 52.1244 14.9208 52.3546 14.9208C52.5796 14.9208 52.7632 14.8445 52.9055 14.6919C53.0503 14.5366 53.1227 14.3348 53.1227 14.0864V11.6493H54.5Z" fill="white"/>
<path d="M55.1925 12.9571C55.1925 12.5276 55.3645 12.1874 55.7084 11.9364C56.055 11.6829 56.5219 11.5561 57.109 11.5561C57.6909 11.5561 58.1526 11.6855 58.494 11.9442C58.8354 12.2029 59.0087 12.5535 59.0139 12.9959H57.7569C57.7517 12.8407 57.6884 12.7178 57.5668 12.6272C57.4478 12.5341 57.2901 12.4875 57.0935 12.4875C56.9202 12.4875 56.7805 12.5224 56.6745 12.5923C56.5684 12.6622 56.5154 12.754 56.5154 12.8678C56.5154 13.0412 56.6809 13.1628 57.012 13.2327L57.9043 13.4189C58.3363 13.5095 58.6479 13.6479 58.8393 13.8342C59.0333 14.0205 59.1303 14.2766 59.1303 14.6026C59.1303 15.045 58.9467 15.3995 58.5794 15.666C58.2121 15.9299 57.7272 16.0618 57.1245 16.0618C56.5115 16.0618 56.0266 15.9325 55.6697 15.6737C55.3127 15.4124 55.12 15.0593 55.0916 14.6142H56.4262C56.4469 14.7772 56.5206 14.904 56.6473 14.9946C56.7766 15.0851 56.9448 15.1304 57.1517 15.1304C57.3431 15.1304 57.4931 15.0981 57.6017 15.0334C57.7129 14.9661 57.7685 14.8743 57.7685 14.7578C57.7685 14.6673 57.731 14.5948 57.656 14.5405C57.5836 14.4862 57.4621 14.4409 57.2913 14.4047L56.4805 14.2339C56.0589 14.146 55.7382 13.9933 55.5183 13.776C55.3011 13.5586 55.1925 13.2857 55.1925 12.9571Z" fill="white"/>
<path d="M60.071 10.6946H61.4444V11.6493H62.2242V12.666H61.4444V14.5095C61.4444 14.8122 61.6113 14.9635 61.9449 14.9635C62.0406 14.9635 62.1337 14.9571 62.2242 14.9441V15.9221C62.0665 15.9583 61.8647 15.9764 61.619 15.9764C61.0655 15.9764 60.6685 15.8846 60.428 15.7009C60.19 15.5146 60.071 15.2093 60.071 14.785V12.666H59.493V11.6493H60.071V10.6946Z" fill="white"/>
<path d="M64.6742 15.0722C64.9018 15.0722 65.0945 15.0114 65.2522 14.8898C65.4126 14.7656 65.4928 14.6065 65.4928 14.4124V14.1136L64.6974 14.1679C64.5035 14.1809 64.3534 14.2275 64.2474 14.3077C64.1439 14.3879 64.0922 14.4939 64.0922 14.6259C64.0922 14.763 64.1439 14.8717 64.2474 14.9519C64.3534 15.0321 64.4957 15.0722 64.6742 15.0722ZM64.1892 16.0269C63.778 16.0269 63.4314 15.9053 63.1495 15.6621C62.8701 15.4163 62.7305 15.1019 62.7305 14.719C62.7305 14.318 62.8792 14.0062 63.1766 13.7837C63.4766 13.5612 63.9112 13.4319 64.4802 13.3956L65.4928 13.3336V13.0852C65.4928 12.9118 65.4346 12.7786 65.3182 12.6854C65.2044 12.5897 65.0492 12.5419 64.8526 12.5419C64.669 12.5419 64.5177 12.5858 64.3987 12.6738C64.2797 12.7592 64.2099 12.8704 64.1892 13.0076H62.9516C62.9697 12.5703 63.1559 12.2197 63.5103 11.9558C63.8672 11.6894 64.3366 11.5561 64.9186 11.5561C65.4928 11.5561 65.9557 11.6906 66.3075 11.9597C66.6593 12.2262 66.8351 12.5768 66.8351 13.0114V15.9687H65.5005V15.3477H65.4734C65.3596 15.5599 65.1837 15.7268 64.9457 15.8484C64.7104 15.9674 64.4582 16.0269 64.1892 16.0269Z" fill="white"/>
<path d="M67.6129 15.9687V11.6493H68.9902V15.9687H67.6129ZM68.2996 11.2922C68.1031 11.2922 67.9362 11.2275 67.7991 11.0982C67.6621 10.9688 67.5935 10.8071 67.5935 10.6131C67.5935 10.4216 67.6621 10.2612 67.7991 10.1318C67.9362 9.99987 68.1031 9.9339 68.2996 9.9339C68.4962 9.9339 68.663 9.99987 68.8001 10.1318C68.9398 10.2612 69.0096 10.4216 69.0096 10.6131C69.0096 10.8071 68.9411 10.9688 68.804 11.0982C68.6669 11.2275 68.4988 11.2922 68.2996 11.2922Z" fill="white"/>
<path d="M69.7719 15.9687V11.6493H71.1065V12.4604H71.1336C71.25 12.1732 71.4259 11.9545 71.6613 11.8045C71.8966 11.6518 72.1798 11.5755 72.5109 11.5755C72.992 11.5755 73.3683 11.7191 73.6399 12.0063C73.914 12.2935 74.0511 12.6919 74.0511 13.2016V15.9687H72.6739V13.4966C72.6739 13.2456 72.6079 13.0502 72.476 12.9105C72.3467 12.7682 72.1643 12.6971 71.929 12.6971C71.6962 12.6971 71.5074 12.7747 71.3625 12.9299C71.2177 13.0852 71.1453 13.2857 71.1453 13.5315V15.9687H69.7719Z" fill="white"/>
<path d="M76.5748 15.0722C76.8024 15.0722 76.9951 15.0114 77.1528 14.8898C77.3132 14.7656 77.3934 14.6065 77.3934 14.4124V14.1136L76.598 14.1679C76.4041 14.1809 76.254 14.2275 76.148 14.3077C76.0445 14.3879 75.9928 14.4939 75.9928 14.6259C75.9928 14.763 76.0445 14.8717 76.148 14.9519C76.254 15.0321 76.3963 15.0722 76.5748 15.0722ZM76.0898 16.0269C75.6786 16.0269 75.332 15.9053 75.0501 15.6621C74.7707 15.4163 74.6311 15.1019 74.6311 14.719C74.6311 14.318 74.7798 14.0062 75.0772 13.7837C75.3772 13.5612 75.8118 13.4319 76.3808 13.3956L77.3934 13.3336V13.0852C77.3934 12.9118 77.3352 12.7786 77.2188 12.6854C77.105 12.5897 76.9498 12.5419 76.7532 12.5419C76.5696 12.5419 76.4183 12.5858 76.2993 12.6738C76.1803 12.7592 76.1105 12.8704 76.0898 13.0076H74.8522C74.8703 12.5703 75.0565 12.2197 75.4109 11.9558C75.7678 11.6894 76.2372 11.5561 76.8192 11.5561C77.3934 11.5561 77.8563 11.6906 78.2081 11.9597C78.5599 12.2262 78.7357 12.5768 78.7357 13.0114V15.9687H77.4011V15.3477H77.374C77.2602 15.5599 77.0843 15.7268 76.8463 15.8484C76.611 15.9674 76.3588 16.0269 76.0898 16.0269Z" fill="white"/>
<path d="M82.2526 16.0269C81.9396 16.0269 81.6667 15.957 81.4339 15.8173C81.2038 15.6776 81.0331 15.481 80.9218 15.2274H80.8947V15.9687H79.529V10.0891H80.9024V12.406H80.9335C81.0447 12.1473 81.2141 11.9468 81.4417 11.8045C81.6693 11.6622 81.9357 11.591 82.2409 11.591C82.7867 11.591 83.2108 11.7851 83.5134 12.1732C83.8161 12.5613 83.9674 13.1059 83.9674 13.807C83.9674 14.5082 83.8161 15.0541 83.5134 15.4448C83.2134 15.8328 82.7931 16.0269 82.2526 16.0269ZM82.334 12.9843C82.184 12.7773 81.9836 12.6738 81.7327 12.6738C81.4818 12.6738 81.2801 12.7773 81.1275 12.9843C80.9749 13.1913 80.8986 13.4668 80.8986 13.8109C80.8986 14.155 80.9736 14.4306 81.1236 14.6375C81.2762 14.8419 81.4792 14.9441 81.7327 14.9441C81.9862 14.9441 82.1879 14.8419 82.3379 14.6375C82.4879 14.4306 82.5629 14.1537 82.5629 13.807C82.5629 13.4629 82.4866 13.1887 82.334 12.9843Z" fill="white"/>
<path d="M84.6288 15.9687V10.0891H86.0022V15.9687H84.6288Z" fill="white"/>
<path d="M88.8284 12.5341C88.6086 12.5341 88.4236 12.6078 88.2736 12.7553C88.1236 12.9028 88.0395 13.0916 88.0214 13.3219H89.6276C89.6147 13.0839 89.5345 12.8937 89.3871 12.7514C89.2422 12.6065 89.056 12.5341 88.8284 12.5341ZM89.6587 14.6104H90.9001C90.8329 15.0528 90.6143 15.4059 90.2445 15.6698C89.8772 15.9312 89.4142 16.0618 88.8556 16.0618C88.1727 16.0618 87.6374 15.8639 87.2494 15.468C86.8614 15.0722 86.6674 14.5263 86.6674 13.8303C86.6674 13.1343 86.8601 12.582 87.2455 12.1732C87.6309 11.7618 88.1521 11.5561 88.809 11.5561C89.453 11.5561 89.9664 11.7527 90.3492 12.146C90.7346 12.5367 90.9273 13.0606 90.9273 13.7178V14.1097H88.0059V14.1951C88.0059 14.459 88.0861 14.6738 88.2465 14.8393C88.4068 15.0023 88.6163 15.0838 88.875 15.0838C89.0664 15.0838 89.2319 15.0424 89.3716 14.9596C89.5112 14.8743 89.6069 14.7578 89.6587 14.6104Z" fill="white"/>
<path d="M48.8998 22.9698V24.1186H45.0628V18.5184H48.8998V19.6672H46.4867V20.781H48.7563V21.8288H46.4867V22.9698H48.8998Z" fill="white"/>
<path d="M53.7745 21.4912H52.5136C52.4904 21.2661 52.4115 21.0876 52.277 20.9556C52.1451 20.8211 51.9757 20.7538 51.7687 20.7538C51.5153 20.7538 51.3161 20.8599 51.1713 21.0721C51.029 21.2816 50.9579 21.5766 50.9579 21.9569C50.9579 22.3424 51.029 22.64 51.1713 22.8495C51.3135 23.0565 51.5127 23.16 51.7687 23.16C51.9782 23.16 52.1477 23.0992 52.277 22.9776C52.4089 22.8534 52.4878 22.6788 52.5136 22.4537H53.7784C53.7577 22.997 53.565 23.4265 53.2003 23.7421C52.8382 24.0552 52.3559 24.2117 51.7532 24.2117C51.0782 24.2117 50.5454 24.0112 50.1548 23.6102C49.7643 23.2091 49.569 22.6581 49.569 21.9569C49.569 21.2635 49.7643 20.715 50.1548 20.3114C50.5454 19.9078 51.0756 19.706 51.7455 19.706C52.3455 19.706 52.8279 19.869 53.1926 20.195C53.5598 20.521 53.7538 20.9531 53.7745 21.4912Z" fill="white"/>
<path d="M58.0634 23.6179C57.6728 24.0138 57.1349 24.2117 56.4495 24.2117C55.7641 24.2117 55.2261 24.0138 54.8355 23.6179C54.445 23.2195 54.2497 22.6658 54.2497 21.9569C54.2497 21.2609 54.4476 20.7124 54.8433 20.3114C55.239 19.9078 55.7744 19.706 56.4495 19.706C57.1271 19.706 57.6625 19.9065 58.0556 20.3075C58.4514 20.706 58.6492 21.2558 58.6492 21.9569C58.6492 22.6684 58.4539 23.2221 58.0634 23.6179ZM55.8559 22.8767C55.9981 23.0914 56.196 23.1988 56.4495 23.1988C56.7029 23.1988 56.9008 23.0914 57.043 22.8767C57.1853 22.6594 57.2564 22.3528 57.2564 21.9569C57.2564 21.5714 57.184 21.2687 57.0392 21.0488C56.8943 20.8289 56.6978 20.7189 56.4495 20.7189C56.1986 20.7189 56.0007 20.8289 55.8559 21.0488C55.7136 21.2661 55.6425 21.5688 55.6425 21.9569C55.6425 22.3528 55.7136 22.6594 55.8559 22.8767Z" fill="white"/>
<path d="M59.2059 21.107C59.2059 20.6775 59.3779 20.3373 59.7219 20.0863C60.0685 19.8328 60.5353 19.706 61.1224 19.706C61.7044 19.706 62.166 19.8354 62.5075 20.0941C62.8489 20.3528 63.0222 20.7034 63.0273 21.1458H61.7703C61.7652 20.9906 61.7018 20.8677 61.5802 20.7771C61.4612 20.684 61.3035 20.6374 61.1069 20.6374C60.9336 20.6374 60.7939 20.6723 60.6879 20.7422C60.5819 20.8121 60.5288 20.9039 60.5288 21.0177C60.5288 21.1911 60.6944 21.3127 61.0254 21.3825L61.9178 21.5688C62.3497 21.6594 62.6614 21.7978 62.8527 21.9841C63.0467 22.1704 63.1437 22.4265 63.1437 22.7525C63.1437 23.1949 62.9601 23.5494 62.5928 23.8159C62.2255 24.0798 61.7406 24.2117 61.1379 24.2117C60.525 24.2117 60.04 24.0823 59.6831 23.8236C59.3261 23.5623 59.1335 23.2091 59.105 22.7641H60.4396C60.4603 22.9271 60.534 23.0539 60.6607 23.1445C60.7901 23.235 60.9582 23.2803 61.1651 23.2803C61.3565 23.2803 61.5065 23.248 61.6151 23.1833C61.7264 23.116 61.782 23.0242 61.782 22.9077C61.782 22.8172 61.7445 22.7447 61.6695 22.6904C61.597 22.6361 61.4755 22.5908 61.3048 22.5546L60.4939 22.3838C60.0723 22.2958 59.7516 22.1432 59.5318 21.9259C59.3145 21.7085 59.2059 21.4356 59.2059 21.107Z" fill="white"/>
<path d="M64.3483 25.6981C64.0405 25.6981 63.8737 25.6955 63.8478 25.6903V24.6502C63.8607 24.6528 63.9409 24.6541 64.0883 24.6541C64.5436 24.6541 64.7944 24.5274 64.841 24.2738L64.8604 24.1535L63.3861 19.7991H64.9031L65.6984 23.0785H65.7256L66.5209 19.7991H67.9719L66.583 24.1108C66.3993 24.6852 66.1355 25.0927 65.7915 25.3333C65.4501 25.5765 64.969 25.6981 64.3483 25.6981Z" fill="white"/>
<path d="M68.3113 21.107C68.3113 20.6775 68.4833 20.3373 68.8273 20.0863C69.1738 19.8328 69.6407 19.706 70.2278 19.706C70.8098 19.706 71.2714 19.8354 71.6128 20.0941C71.9543 20.3528 72.1275 20.7034 72.1327 21.1458H70.8757C70.8705 20.9906 70.8072 20.8677 70.6856 20.7771C70.5666 20.684 70.4089 20.6374 70.2123 20.6374C70.039 20.6374 69.8993 20.6723 69.7933 20.7422C69.6872 20.8121 69.6342 20.9039 69.6342 21.0177C69.6342 21.1911 69.7998 21.3127 70.1308 21.3825L71.0231 21.5688C71.4551 21.6594 71.7667 21.7978 71.9581 21.9841C72.1521 22.1704 72.2491 22.4265 72.2491 22.7525C72.2491 23.1949 72.0655 23.5494 71.6982 23.8159C71.3309 24.0798 70.846 24.2117 70.2433 24.2117C69.6303 24.2117 69.1454 24.0823 68.7885 23.8236C68.4315 23.5623 68.2388 23.2091 68.2104 22.7641H69.545C69.5657 22.9271 69.6394 23.0539 69.7661 23.1445C69.8955 23.235 70.0636 23.2803 70.2705 23.2803C70.4619 23.2803 70.6119 23.248 70.7205 23.1833C70.8317 23.116 70.8874 23.0242 70.8874 22.9077C70.8874 22.8172 70.8498 22.7447 70.7748 22.6904C70.7024 22.6361 70.5809 22.5908 70.4102 22.5546L69.5993 22.3838C69.1777 22.2958 68.857 22.1432 68.6372 21.9259C68.4199 21.7085 68.3113 21.4356 68.3113 21.107Z" fill="white"/>
<path d="M73.1898 18.8444H74.5632V19.7991H75.3431V20.8159H74.5632V22.6594C74.5632 22.9621 74.7301 23.1134 75.0637 23.1134C75.1594 23.1134 75.2525 23.107 75.3431 23.094V24.072C75.1853 24.1082 74.9835 24.1263 74.7378 24.1263C74.1843 24.1263 73.7873 24.0345 73.5468 23.8508C73.3088 23.6645 73.1898 23.3592 73.1898 22.9349V20.8159H72.6118V19.7991H73.1898V18.8444Z" fill="white"/>
<path d="M78.0141 20.684C77.7943 20.684 77.6093 20.7577 77.4593 20.9052C77.3093 21.0527 77.2253 21.2415 77.2071 21.4718H78.8133C78.8004 21.2338 78.7202 21.0436 78.5728 20.9013C78.4279 20.7564 78.2417 20.684 78.0141 20.684ZM78.8444 22.7603H80.0858C80.0186 23.2027 79.8 23.5558 79.4302 23.8197C79.0629 24.0811 78.5999 24.2117 78.0413 24.2117C77.3585 24.2117 76.8231 24.0138 76.4351 23.6179C76.0471 23.2221 75.8531 22.6762 75.8531 21.9802C75.8531 21.2842 76.0458 20.7318 76.4312 20.3231C76.8166 19.9117 77.3378 19.706 77.9947 19.706C78.6387 19.706 79.1521 19.9026 79.5349 20.2959C79.9203 20.6866 80.113 21.2105 80.113 21.8677V22.2596H77.1916V22.345C77.1916 22.6089 77.2718 22.8236 77.4322 22.9892C77.5925 23.1522 77.802 23.2337 78.0607 23.2337C78.2521 23.2337 78.4176 23.1923 78.5573 23.1095C78.6969 23.0242 78.7926 22.9077 78.8444 22.7603Z" fill="white"/>
<path d="M80.7473 24.1186V19.7991H82.0819V20.6297H82.109C82.1944 20.3528 82.3483 20.1329 82.5707 19.9699C82.7931 19.8069 83.0505 19.7254 83.3427 19.7254C83.6635 19.7254 83.9286 19.8056 84.1381 19.966C84.3476 20.1238 84.4834 20.3489 84.5454 20.6413H84.5726C84.6579 20.3619 84.8209 20.1394 85.0614 19.9738C85.3045 19.8082 85.5865 19.7254 85.9072 19.7254C86.3288 19.7254 86.6702 19.8612 86.9314 20.1329C87.1926 20.402 87.3233 20.7551 87.3233 21.1924V24.1186H85.9499V21.5417C85.9499 21.3114 85.8968 21.138 85.7908 21.0216C85.6873 20.9026 85.5334 20.8431 85.3291 20.8431C85.1351 20.8431 84.98 20.9078 84.8636 21.0371C84.7498 21.1665 84.6929 21.3399 84.6929 21.5572V24.1186H83.3815V21.5223C83.3815 21.3049 83.3272 21.138 83.2186 21.0216C83.1125 20.9026 82.9599 20.8431 82.7608 20.8431C82.5694 20.8431 82.4142 20.9091 82.2952 21.041C82.1788 21.173 82.1206 21.3476 82.1206 21.5649V24.1186H80.7473Z" fill="white"/>
<path d="M89.6587 22.4964H91.0127C91.0385 22.6852 91.1459 22.8392 91.3347 22.9582C91.5261 23.0772 91.755 23.1367 92.0214 23.1367C92.2955 23.1367 92.5167 23.0824 92.6848 22.9737C92.8529 22.8625 92.937 22.7214 92.937 22.5507C92.937 22.3955 92.871 22.2751 92.7391 22.1898C92.6098 22.1018 92.3848 22.0242 92.064 21.9569L91.3308 21.8133C90.8161 21.715 90.4268 21.53 90.163 21.2584C89.8992 20.9841 89.7673 20.6335 89.7673 20.2066C89.7673 19.6685 89.9742 19.2364 90.388 18.9104C90.8044 18.5844 91.3398 18.4214 91.9942 18.4214C92.6874 18.4214 93.2318 18.578 93.6275 18.891C94.0258 19.2015 94.2289 19.6219 94.2366 20.1523H92.9253C92.9124 19.9505 92.8219 19.7914 92.6537 19.675C92.4856 19.5585 92.271 19.5003 92.0097 19.5003C91.7614 19.5003 91.561 19.5521 91.4084 19.6556C91.2584 19.759 91.1834 19.8962 91.1834 20.0669C91.1834 20.217 91.248 20.3386 91.3773 20.4317C91.5092 20.5223 91.7226 20.5973 92.0175 20.6568L92.743 20.7926C93.2939 20.8987 93.6987 21.0811 93.9573 21.3399C94.216 21.5986 94.3453 21.9492 94.3453 22.3916C94.3453 22.9478 94.1319 23.3915 93.7051 23.7227C93.2784 24.0513 92.7042 24.2156 91.9826 24.2156C91.2661 24.2156 90.701 24.0642 90.2872 23.7615C89.8759 23.4588 89.6664 23.0371 89.6587 22.4964Z" fill="white"/>
<path d="M99.0842 21.4912H97.8233C97.8 21.2661 97.7211 21.0876 97.5866 20.9556C97.4547 20.8211 97.2853 20.7538 97.0784 20.7538C96.8249 20.7538 96.6258 20.8599 96.4809 21.0721C96.3387 21.2816 96.2676 21.5766 96.2676 21.9569C96.2676 22.3424 96.3387 22.64 96.4809 22.8495C96.6232 23.0565 96.8224 23.16 97.0784 23.16C97.2879 23.16 97.4573 23.0992 97.5866 22.9776C97.7186 22.8534 97.7974 22.6788 97.8233 22.4537H99.0881C99.0674 22.997 98.8747 23.4265 98.51 23.7421C98.1479 24.0552 97.6655 24.2117 97.0629 24.2117C96.3878 24.2117 95.855 24.0112 95.4645 23.6102C95.0739 23.2091 94.8786 22.6581 94.8786 21.9569C94.8786 21.2635 95.0739 20.715 95.4645 20.3114C95.855 19.9078 96.3852 19.706 97.0551 19.706C97.6552 19.706 98.1376 19.869 98.5022 20.195C98.8695 20.521 99.0635 20.9531 99.0842 21.4912Z" fill="white"/>
<path d="M101.468 23.2221C101.696 23.2221 101.888 23.1613 102.046 23.0397C102.207 22.9155 102.287 22.7564 102.287 22.5623V22.2635L101.491 22.3178C101.297 22.3308 101.147 22.3773 101.041 22.4575C100.938 22.5378 100.886 22.6438 100.886 22.7758C100.886 22.9129 100.938 23.0216 101.041 23.1018C101.147 23.182 101.29 23.2221 101.468 23.2221ZM100.983 24.1768C100.572 24.1768 100.225 24.0552 99.9435 23.812C99.6641 23.5662 99.5245 23.2518 99.5245 22.8689C99.5245 22.4679 99.6732 22.1561 99.9706 21.9336C100.271 21.7111 100.705 21.5818 101.274 21.5455L102.287 21.4834V21.2351C102.287 21.0617 102.229 20.9285 102.112 20.8353C101.998 20.7396 101.843 20.6917 101.647 20.6917C101.463 20.6917 101.312 20.7357 101.193 20.8237C101.074 20.9091 101.004 21.0203 100.983 21.1575H99.7456C99.7637 20.7202 99.9499 20.3696 100.304 20.1057C100.661 19.8392 101.131 19.706 101.713 19.706C102.287 19.706 102.75 19.8405 103.101 20.1096C103.453 20.3761 103.629 20.7267 103.629 21.1613V24.1186H102.295V23.4976H102.267C102.154 23.7098 101.978 23.8767 101.74 23.9983C101.504 24.1173 101.252 24.1768 100.983 24.1768Z" fill="white"/>
<path d="M104.422 24.1186V18.239H105.796V24.1186H104.422Z" fill="white"/>
<path d="M106.605 24.1186V19.7991H107.982V24.1186H106.605ZM107.291 19.4421C107.095 19.4421 106.928 19.3774 106.791 19.2481C106.654 19.1187 106.585 18.957 106.585 18.7629C106.585 18.5715 106.654 18.4111 106.791 18.2817C106.928 18.1498 107.095 18.0838 107.291 18.0838C107.488 18.0838 107.655 18.1498 107.792 18.2817C107.931 18.4111 108.001 18.5715 108.001 18.7629C108.001 18.957 107.933 19.1187 107.796 19.2481C107.659 19.3774 107.491 19.4421 107.291 19.4421Z" fill="white"/>
<path d="M108.764 24.1186V19.7991H110.098V20.6102H110.125C110.242 20.3231 110.418 20.1044 110.653 19.9544C110.888 19.8017 111.172 19.7254 111.503 19.7254C111.984 19.7254 112.36 19.869 112.632 20.1562C112.906 20.4434 113.043 20.8418 113.043 21.3515V24.1186H111.666V21.6464C111.666 21.3955 111.6 21.2001 111.468 21.0604C111.338 20.9181 111.156 20.847 110.921 20.847C110.688 20.847 110.499 20.9246 110.354 21.0798C110.209 21.2351 110.137 21.4356 110.137 21.6814V24.1186H108.764Z" fill="white"/>
<path d="M115.283 22.768C115.431 22.9595 115.634 23.0552 115.892 23.0552C116.151 23.0552 116.354 22.9595 116.501 22.768C116.652 22.574 116.727 22.3036 116.727 21.9569C116.727 21.6102 116.652 21.3347 116.501 21.1303C116.351 20.9259 116.148 20.8237 115.892 20.8237C115.636 20.8237 115.433 20.9259 115.283 21.1303C115.136 21.3321 115.062 21.6063 115.062 21.953C115.062 22.3023 115.136 22.574 115.283 22.768ZM115.869 25.7214C115.259 25.7214 114.762 25.6011 114.379 25.3605C113.997 25.1224 113.796 24.8029 113.778 24.4019H115.113C115.141 24.5235 115.228 24.6205 115.373 24.6929C115.52 24.768 115.693 24.8055 115.892 24.8055C116.143 24.8055 116.344 24.7447 116.494 24.6231C116.644 24.5041 116.719 24.3411 116.719 24.1341V23.3152H116.692C116.604 23.5455 116.441 23.7305 116.203 23.8702C115.967 24.0073 115.692 24.0759 115.376 24.0759C114.857 24.0759 114.44 23.887 114.127 23.5093C113.814 23.1289 113.658 22.6076 113.658 21.9453C113.658 21.2596 113.813 20.7215 114.123 20.3308C114.434 19.9376 114.859 19.7409 115.4 19.7409C115.705 19.7409 115.973 19.816 116.203 19.966C116.436 20.1135 116.602 20.3101 116.703 20.5559H116.727V19.7991H118.096V24.0332C118.096 24.5455 117.893 24.9543 117.487 25.2595C117.081 25.5674 116.542 25.7214 115.869 25.7214Z" fill="white"/>
<path d="M40.4465 26L39.343 26L39.343 9L40.4465 9L40.4465 26Z" fill="white"/>
<path d="M10.1068 24.0418V13.2388L18.3583 19.4041V24.0418H20.4651V18.9692C20.4651 18.5859 20.2836 18.2248 19.9751 17.9943L9.96792 10.5172C9.15801 9.91208 8 10.4858 8 11.4922V24.0418H10.1068Z" fill="white"/>
<path d="M32.9279 24.0418V13.2388L24.6764 19.4041V24.0418H22.5696V18.9692C22.5696 18.5859 22.7511 18.2248 23.0596 17.9943L33.0668 10.5172C33.8767 9.91208 35.0347 10.4858 35.0347 11.4922V24.0418H32.9279Z" fill="white"/>
</svg>
