<svg width="123" height="123" viewBox="0 0 123 123" fill="none" xmlns="http://www.w3.org/2000/svg">
<rect width="123" height="123" fill="white"/>
<path d="M114.066 56.4295C112.412 56.2897 50.3183 59.1966 50.3183 59.1966L10.7786 52.0103L64.5927 51.7358L114.066 56.4295Z" fill="#D6E7FA"/>
<path d="M50.6167 79.6991L11.6856 71.6514C11.6856 71.6514 7.45581 67.1944 8.05886 60.9257C8.66048 54.657 10.7789 52.0115 10.7789 52.0115L50.3201 59.1977C50.3201 59.1977 45.0588 62.6601 46.2634 70.0059C47.4596 77.3463 50.6167 79.6991 50.6167 79.6991Z" fill="url(#paint0_linear_362_25706)"/>
<path d="M22.7603 54.5298C22.7603 54.5298 20.6461 57.1779 20.0445 63.444C19.4571 69.5362 23.4301 73.9096 23.6642 74.1593L20.1353 73.4312C20.1353 73.4312 15.9069 68.9742 16.5086 62.7015C17.1102 56.4355 19.2244 53.7874 19.2244 53.7874" fill="#3FC9AE"/>
<path d="M52.362 61.0139C52.362 61.0139 46.5188 69.1256 52.1193 77.2359L110.766 75.2662C110.766 75.2662 113.106 74.8897 114.097 75.4191C115.08 75.9484 114.068 77.3444 114.068 77.3444L50.6181 79.6971C50.6181 79.6971 47.461 77.3444 46.2634 70.0052C45.0588 62.6595 50.3201 59.1971 50.3201 59.1971C50.3201 59.1971 112.414 56.2889 114.068 56.43C115.723 56.5699 114.67 58.5083 114.67 58.5083L110.765 58.6481L52.362 61.0139Z" fill="#3FC9AE"/>
<path d="M109.194 68.5907C109.456 71.8741 110.765 75.2672 110.765 75.2672L52.1175 77.237C52.1175 77.237 52.1105 77.2239 52.0963 77.1991C46.5369 69.1005 52.3588 61.015 52.3588 61.015L110.763 58.6492C110.763 58.6492 110.729 58.9995 110.631 59.619C110.458 60.7797 110.091 62.8579 109.407 65.2943C109.373 65.4159 109.344 65.5361 109.323 65.6642C109.275 65.855 109.239 66.0537 109.219 66.2576C109.136 66.8824 109.13 67.5451 109.164 68.2156C109.173 68.3424 109.18 68.4705 109.194 68.5907Z" fill="url(#paint1_linear_362_25706)"/>
<path d="M35.2768 54.9123C35.2286 55.7096 35.1519 56.3278 35.0483 56.8062C35.1108 56.4115 35.159 55.9331 35.1931 55.3711C35.2697 54.1019 35.0342 53.2536 34.7078 52.6929C34.1402 51.7047 33.2889 51.5897 33.2889 51.5897L18.061 47.6803V47.2019L33.3726 51.1296C33.3726 51.1296 34.224 51.2447 34.7915 52.2328C35.1179 52.7948 35.3534 53.6431 35.2768 54.9123Z" fill="#9291A5"/>
<path d="M35.1931 55.3703C35.159 55.931 35.1094 56.4094 35.0483 56.8055C35.0483 56.812 35.0483 56.8185 35.0413 56.8251C34.6737 58.4197 33.9473 58.3805 32.8746 57.9544C32.0303 57.6224 24.1737 55.1429 18.061 53.2293V47.6821L33.2903 51.5916C33.2903 51.5916 34.1417 51.7066 34.7092 52.6947C35.0342 53.2528 35.2697 54.1011 35.1931 55.3703Z" fill="url(#paint2_linear_362_25706)"/>
<path d="M105.166 56.7557L34.8273 59.8613C34.8273 59.8613 36.7797 58.7843 36.7797 54.8173C36.7797 53.7207 36.5924 52.8724 36.3228 52.228L105.166 49.4348C105.166 49.4348 106.848 52.9796 105.166 56.7557Z" fill="url(#paint3_linear_362_25706)"/>
<path d="M97.58 56.2862L92.9217 56.4967C92.9217 56.4967 92.7543 56.6509 92.9217 56.4967C94.0597 53.9479 93.231 51.3194 92.9685 50.6462L97.5815 50.458C97.58 50.4593 98.9167 53.2787 97.58 56.2862Z" fill="#718091"/>
<path d="M91.0604 56.4845L89.037 56.5747C90.2332 53.809 89.2556 51.2236 89.0441 50.7387L91.0604 50.655C91.0604 50.655 92.3914 53.4757 91.0604 56.4845Z" fill="#718091"/>
<path d="M105.166 49.4347L36.3226 52.2279C35.6302 50.5509 34.3773 50.2124 34.3773 50.2124L14.3506 45.2194L18.0611 45.1044L85.1663 43L105.166 49.4347Z" fill="url(#paint4_linear_362_25706)"/>
<path fill-rule="evenodd" clip-rule="evenodd" d="M39.3194 53.2926L43.6629 53.092L43.6942 53.6726L39.9574 53.8452L42.2346 55.9998L43.8268 55.9263L43.8578 56.4984L42.1139 56.5789C42.0482 56.5817 41.9828 56.5722 41.9232 56.5511C41.8635 56.5301 41.8113 56.4981 41.7707 56.4578L40.7741 55.514L40.0364 55.5481L42.286 57.704L43.9191 57.6286L43.95 58.2007L42.1672 58.283C42.1024 58.2858 42.0379 58.2762 41.979 58.2551C41.9201 58.234 41.8685 58.202 41.8284 58.1617L39.1038 55.5484C39.0538 55.5011 39.0214 55.4434 39.0105 55.3817C38.9995 55.32 39.0104 55.2569 39.0418 55.1994C39.0732 55.1419 39.124 55.0923 39.1884 55.0562C39.2528 55.0202 39.3282 54.999 39.4062 54.9952L40.188 54.959L39.0127 53.8461C38.962 53.7988 38.9293 53.7411 38.9183 53.6794C38.9072 53.6178 38.9183 53.5546 38.9501 53.4971C38.982 53.4396 39.0335 53.39 39.0987 53.3538C39.164 53.3177 39.2404 53.2965 39.3194 53.2926ZM43.7673 54.8177L41.9433 54.902C42.3033 55.2391 42.7838 55.4167 43.2745 55.394L43.7972 55.3699L43.7673 54.8177Z" fill="#718091"/>
<path d="M36.7795 54.815C36.7795 58.7806 34.8271 59.859 34.8271 59.859L18.0611 54.3431L14.5932 53.2021L14.5592 52.1303C15.5978 52.4557 16.7883 52.8322 18.0625 53.2269C24.1752 55.1404 32.0318 57.62 32.8761 57.9519C34.2737 58.5061 35.0768 58.4107 35.2783 54.9104C35.3549 53.6412 35.1194 52.793 34.793 52.2322C34.2255 51.2441 33.3741 51.1291 33.3741 51.1291L18.0611 47.2013L14.3846 46.2576L14.3506 45.2185L34.3773 50.2115C34.3773 50.2115 36.7795 50.8559 36.7795 54.815Z" fill="url(#paint5_linear_362_25706)"/>
<path d="M61.2642 67.1171L109.222 66.2558C109.244 66.0519 109.278 65.8545 109.326 65.6624L61.2642 67.1171Z" fill="#ABB5CA"/>
<path d="M85.7635 68.9988L109.196 68.591C109.181 68.4695 109.174 68.3427 109.167 68.2146L85.7635 68.9988Z" fill="#ABB5CA"/>
<path d="M110.764 58.6506C110.764 58.6506 110.73 59.0009 110.632 59.6205L52.6435 62.0111C48.0334 68.6236 51.7922 76.5757 52.0972 77.2005C46.5379 69.1019 52.3597 61.0164 52.3597 61.0164L110.764 58.6506Z" fill="url(#paint6_linear_362_25706)"/>
<path d="M21.3291 50.7607C21.3291 50.7607 20.8765 50.7804 20.8765 51.2574C20.8765 51.7345 20.8765 52.5384 20.8765 52.5384L21.7009 52.226L22.4855 52.8364V51.5868C22.4855 51.5868 22.5253 51.2195 22.8048 51.1829L21.3291 50.7607Z" fill="#39C4A8"/>
<path d="M25.5644 52.0025L18.0611 49.9425V49.6301L25.5644 52.0025Z" fill="url(#paint7_linear_362_25706)"/>
<path d="M100.13 75.4101L96.5608 73.8973L96.198 66.8434C96.064 66.4605 95.9364 66.3156 95.6298 66.1626L103.904 65.8695C103.316 65.9066 103.215 66.1976 103.201 66.5953L103.564 73.6492L100.13 75.4101Z" fill="#1AAB9B"/>
<path d="M100.13 75.4101L96.5608 73.8973L96.198 66.8434C96.064 66.4605 95.9364 66.3156 95.6298 66.1626L103.904 65.8695C103.316 65.9066 103.215 66.1976 103.201 66.5953L103.564 73.6492L100.13 75.4101Z" fill="url(#paint8_linear_362_25706)" fill-opacity="0.4"/>
<path fill-rule="evenodd" clip-rule="evenodd" d="M100.855 69.6679L100.829 69.0674C100.826 69.0075 100.807 68.9494 100.775 68.8997C100.744 68.85 100.699 68.8107 100.648 68.7862C100.597 68.7616 100.54 68.7528 100.485 68.7608C100.429 68.7687 100.377 68.7931 100.334 68.8312L97.9689 70.9035C97.9324 70.934 97.9033 70.9733 97.884 71.0184C97.8646 71.0635 97.8556 71.1129 97.8576 71.1627L97.9184 72.5318L98.4321 72.5123L98.3763 71.2581L100.328 69.5471L100.353 70.1137L99.4978 70.8725C99.4614 70.9033 99.4323 70.9432 99.413 70.9888C99.3937 71.0345 99.3846 71.0846 99.3866 71.135L99.4462 72.4742L99.9599 72.4547L99.9055 71.2319L101.856 69.4996L101.984 72.3694L102.505 72.3496L102.357 69.014C102.354 68.9533 102.335 68.8945 102.303 68.8441C102.271 68.7938 102.227 68.7539 102.176 68.729C102.124 68.7041 102.068 68.6952 102.012 68.7032C101.957 68.7113 101.905 68.736 101.862 68.7745L100.855 69.6679ZM100.956 72.4193L100.893 71.0185C100.591 71.2899 100.426 71.6829 100.444 72.0901L100.46 72.4382L100.956 72.4193Z" fill="#0E6D64"/>
<defs>
<linearGradient id="paint0_linear_362_25706" x1="8.00012" y1="65.8548" x2="50.6167" y2="65.8548" gradientUnits="userSpaceOnUse">
<stop stop-color="#49AB98"/>
<stop offset="0.447917" stop-color="#4BB9A3"/>
<stop offset="0.859375" stop-color="#1AAB9B"/>
</linearGradient>
<linearGradient id="paint1_linear_362_25706" x1="106.504" y1="103.493" x2="70.1626" y2="42.7444" gradientUnits="userSpaceOnUse">
<stop offset="0.00121702" stop-color="#C2D5E4"/>
<stop offset="1" stop-color="#E4E2F1"/>
</linearGradient>
<linearGradient id="paint2_linear_362_25706" x1="18.0604" y1="52.9425" x2="35.2077" y2="52.9425" gradientUnits="userSpaceOnUse">
<stop stop-color="#D7DFFF"/>
<stop offset="1" stop-color="#CCD0D3"/>
</linearGradient>
<linearGradient id="paint3_linear_362_25706" x1="70.3703" y1="56.7115" x2="70.3703" y2="52.4984" gradientUnits="userSpaceOnUse">
<stop stop-color="#132534"/>
<stop offset="1" stop-color="#354249"/>
</linearGradient>
<linearGradient id="paint4_linear_362_25706" x1="14.3507" y1="47.614" x2="105.165" y2="47.614" gradientUnits="userSpaceOnUse">
<stop stop-color="#132534"/>
<stop offset="1" stop-color="#354249"/>
</linearGradient>
<linearGradient id="paint5_linear_362_25706" x1="14.3507" y1="52.5391" x2="36.7792" y2="52.5391" gradientUnits="userSpaceOnUse">
<stop stop-color="#132534"/>
<stop offset="1" stop-color="#354249"/>
</linearGradient>
<linearGradient id="paint6_linear_362_25706" x1="107.655" y1="98.9834" x2="68.5836" y2="44.4496" gradientUnits="userSpaceOnUse">
<stop offset="0.00121702" stop-color="#C2D5E4"/>
<stop offset="0.3123" stop-color="#A8BACF"/>
<stop offset="1" stop-color="#7283A3"/>
</linearGradient>
<linearGradient id="paint7_linear_362_25706" x1="18.0605" y1="50.8164" x2="25.5644" y2="50.8164" gradientUnits="userSpaceOnUse">
<stop offset="0.00121702" stop-color="#C2D5E4"/>
<stop offset="0.3123" stop-color="#A8BACF"/>
<stop offset="1" stop-color="#7283A3"/>
</linearGradient>
<linearGradient id="paint8_linear_362_25706" x1="101.671" y1="71.9717" x2="96.1603" y2="98.9453" gradientUnits="userSpaceOnUse">
<stop stop-color="#1AAB9B"/>
<stop offset="1" stop-opacity="0.28"/>
</linearGradient>
</defs>
</svg>
