<svg width="32" height="32" viewBox="0 0 32 32" fill="none" xmlns="http://www.w3.org/2000/svg">
<mask id="mask0_368_18630" style="mask-type:alpha" maskUnits="userSpaceOnUse" x="6" y="8" width="21" height="16">
<path fill-rule="evenodd" clip-rule="evenodd" d="M6.40039 8H26.2549V23.2727H6.40039V8Z" fill="white"/>
</mask>
<g mask="url(#mask0_368_18630)">
<path fill-rule="evenodd" clip-rule="evenodd" d="M19.6318 18.4179C18.6536 18.4179 17.8477 17.5115 17.8477 16.3984C17.8477 15.2854 18.6382 14.3789 19.6318 14.3789C20.6337 14.3789 21.4321 15.2933 21.4162 16.3984C21.4162 17.5115 20.6337 18.4179 19.6318 18.4179ZM13.0354 18.4179C12.0572 18.4179 11.251 17.5115 11.251 16.3984C11.251 15.2854 12.0415 14.3789 13.0354 14.3789C14.037 14.3789 14.8354 15.2933 14.8195 16.3984C14.8195 17.5115 14.0292 18.4179 13.0354 18.4179ZM23.208 9.2661C21.9426 8.67995 20.5858 8.24845 19.1666 8.00095C19.1412 7.99643 19.1152 8.00828 19.1017 8.03199C18.9272 8.34524 18.734 8.75389 18.5987 9.07504C17.0726 8.84448 15.5542 8.84448 14.0595 9.07504C13.9242 8.74683 13.7237 8.34524 13.5486 8.03199C13.5352 8.00913 13.5095 7.99728 13.4837 8.00095C12.0654 8.2476 10.7086 8.67938 9.44207 9.2661C9.43116 9.2709 9.42193 9.2788 9.41578 9.28924C6.84168 13.1699 6.1367 16.9555 6.48234 20.694C6.48402 20.712 6.49409 20.7295 6.50835 20.7408C8.20633 21.9995 9.85146 22.7634 11.4661 23.27C11.4918 23.2779 11.5192 23.2683 11.5357 23.2468C11.9175 22.7202 12.2581 22.1657 12.55 21.5818C12.5671 21.5476 12.5508 21.5073 12.5156 21.4937C11.9753 21.2869 11.4614 21.0349 10.9667 20.7487C10.9278 20.7256 10.9244 20.6691 10.9605 20.642C11.0645 20.5633 11.1686 20.4815 11.2681 20.3988C11.286 20.3835 11.3109 20.3804 11.3322 20.39C14.5816 21.8871 18.0992 21.8871 21.3103 20.39C21.3316 20.3799 21.3565 20.383 21.3752 20.3979C21.4745 20.4806 21.5788 20.5633 21.6837 20.642C21.7195 20.6691 21.7172 20.7256 21.6781 20.7487C21.1834 21.0402 20.6694 21.2869 20.1286 21.4929C20.0933 21.5064 20.0777 21.5476 20.095 21.5818C20.3931 22.1648 20.7337 22.7197 21.1084 23.246C21.1241 23.2683 21.1523 23.2779 21.1781 23.27C22.8003 22.7634 24.4454 21.9995 26.1437 20.7408C26.1585 20.7295 26.1677 20.7129 26.1694 20.6945C26.5835 16.3725 25.4762 12.6182 23.234 9.2898C23.2284 9.2788 23.2192 9.2709 23.208 9.2661V9.2661Z" fill="#7289DA"/>
</g>
</svg>
