<svg width="32" height="32" viewBox="0 0 32 32" fill="none" xmlns="http://www.w3.org/2000/svg">
<path d="M15.975 6.18829C10.5596 6.18829 6 10.4958 6 15.8109C6 15.9826 6 25.7751 6 25.7751L15.9731 25.7657C21.3885 25.7657 25.7808 21.2921 25.7808 15.9789C25.7808 10.6657 21.3846 6.18829 15.975 6.18829Z" fill="#231F20"/>
<path d="M16.0711 9.91321C15.0182 9.91382 13.9835 10.1827 13.0683 10.6934C12.153 11.2041 11.3887 11.9393 10.85 12.8269C10.3113 13.7145 10.0167 14.7241 9.99516 15.7569C9.97357 16.7897 10.2257 17.8104 10.7268 18.7189L9.62683 22.1906L13.5768 21.3151C14.4034 21.6805 15.3028 21.8598 16.2091 21.84C17.1154 21.8202 18.0058 21.6018 18.815 21.2007C19.6241 20.7997 20.3316 20.2261 20.8856 19.522C21.4396 18.818 21.8261 18.0013 22.0168 17.1317C22.2074 16.2621 22.1974 15.3617 21.9875 14.4964C21.7776 13.6312 21.3731 12.8229 20.8036 12.1308C20.2342 11.4388 19.5141 10.8804 18.6963 10.4967C17.8784 10.113 16.9834 9.91364 16.0768 9.91321H16.0711Z" fill="#FFF9AE"/>
<path d="M20.8943 12.2487C21.7137 13.3027 22.1516 14.5946 22.139 15.9202C22.1264 17.2458 21.6639 18.5294 20.8245 19.5683C19.9852 20.6071 18.8169 21.3419 17.5044 21.6564C16.1919 21.971 14.8099 21.8474 13.577 21.3053L9.62695 22.1921L13.6481 21.726C14.9358 22.4661 16.456 22.7154 17.9189 22.4265C19.3819 22.1375 20.6854 21.3305 21.5809 20.1593C22.4764 18.988 22.9013 17.5344 22.7747 16.0755C22.6481 14.6166 21.9787 13.2545 20.8943 12.2487V12.2487Z" fill="#00AEEF"/>
<path d="M19.7749 11.1491C20.7019 12.1135 21.275 13.3534 21.4034 14.673C21.5319 15.9926 21.2085 17.3166 20.4844 18.4357C19.7602 19.5548 18.6765 20.4052 17.4047 20.8525C16.1329 21.2998 14.7453 21.3186 13.4614 20.9057L9.62683 22.1925L13.5768 21.3151C14.9358 21.9174 16.473 22.0084 17.8959 21.5709C19.3188 21.1333 20.5281 20.1978 21.2936 18.9422C22.0591 17.6867 22.3273 16.1988 22.0473 14.7618C21.7672 13.3248 20.9585 12.039 19.7749 11.1491V11.1491Z" fill="#00A94F"/>
<path d="M11.0904 18.8506C10.5562 17.5873 10.4808 16.1822 10.8769 14.8709C11.2729 13.5595 12.1162 12.4215 13.2656 11.6476C14.415 10.8737 15.8005 10.5109 17.1901 10.62C18.5796 10.7291 19.8888 11.3034 20.8981 12.2468C19.9693 11.0508 18.6143 10.2432 17.1044 9.98565C15.5946 9.72806 14.0413 10.0395 12.7555 10.8576C11.4697 11.6758 10.5463 12.9402 10.1701 14.3978C9.79399 15.8554 9.99287 17.3986 10.727 18.7185L9.62695 22.1902L11.0904 18.8506Z" fill="#F15D22"/>
<path d="M10.7273 18.7182C10.0644 17.517 9.84197 16.1289 10.0971 14.786C10.3522 13.4431 11.0694 12.2268 12.1288 11.3405C13.1882 10.4542 14.5256 9.95149 15.9174 9.91653C17.3092 9.88157 18.6711 10.3164 19.7754 11.1484C18.7227 10.0609 17.2911 9.40246 15.7658 9.3042C14.2405 9.20595 12.7334 9.67512 11.5449 10.6182C10.3564 11.5614 9.57361 12.9092 9.35259 14.3932C9.13157 15.8772 9.48851 17.3884 10.3523 18.6258L9.62922 22.1918L10.7273 18.7182Z" fill="#E31B23"/>
</svg>
