<svg width="32" height="32" viewBox="0 0 32 32" fill="none" xmlns="http://www.w3.org/2000/svg">
<path fill-rule="evenodd" clip-rule="evenodd" d="M20.1538 11.5234V8.57335C20.1527 8.27936 20.0692 7.9915 19.9126 7.7422C19.756 7.49291 19.5326 7.29206 19.2675 7.16226C19.0024 7.03246 18.7062 6.97887 18.4122 7.00752C18.1181 7.03616 17.838 7.14591 17.6032 7.32441L4.64778 17.0339C4.44838 17.1764 4.28573 17.3638 4.17314 17.5809C4.06055 17.798 4.00122 18.0385 4 18.2828V25H6.71255V18.8469L17.4008 10.8295V13.6134L12.7237 17.1642C12.5243 17.3085 12.3617 17.4984 12.2491 17.7183C12.1365 17.9382 12.0772 18.1819 12.076 18.4293V25H14.7885V19.0007L25.4768 10.8792V24.9592H28.2298V8.59378C28.2287 8.29597 28.1451 8.00439 27.9885 7.75185C27.832 7.49932 27.6085 7.29587 27.3435 7.16438C27.0784 7.03289 26.7822 6.97859 26.4881 7.00761C26.1941 7.03663 25.9139 7.14782 25.6792 7.32863L20.1538 11.5234ZM20.0358 24.9996V18.1268L18.1997 19.5364C17.7066 19.915 17.4176 20.5012 17.4176 21.1228V24.9996H20.0358Z" fill="#333333"/>
</svg>
