<svg width="123" height="123" viewBox="0 0 123 123" fill="none" xmlns="http://www.w3.org/2000/svg">
<rect width="123" height="123" fill="white"/>
<path d="M101.575 105.884L95.0459 103.24C97.5746 99.1013 99.827 97.9302 101.326 97.707L103.604 103.93C104.058 105.183 102.813 106.387 101.575 105.884Z" fill="url(#paint0_linear_362_25792)"/>
<path d="M74.0988 93.0879C74.0771 93.083 74.0553 93.0782 74.0396 93.0661L73.2659 92.755L39.9058 57.6956L39.9505 57.6558C39.4906 56.7126 40.0712 54.9323 41.4158 52.7637L43.1854 54.708L43.3773 54.9106L45.3218 57.031L75.2455 88.2476C75.2467 88.2463 77.295 94.0106 74.0988 93.0879Z" fill="#1AAB9B"/>
<path d="M84.7472 78.8286L55.6347 48.4021L53.0818 45.6991L53.0504 45.675L50.4746 42.9539C54.8924 39.4199 58.884 37.6746 60.0995 38.9531C60.1635 39.0158 60.213 39.0797 60.2504 39.1605L60.3337 39.0882L92.2743 72.9643C92.2743 72.9643 92.2755 72.9775 92.2864 73.0125C92.5193 73.8122 95.304 84.1248 84.7472 78.8286Z" fill="#4CCFB5"/>
<path d="M95.0465 103.236L74.0996 93.0879C77.2971 94.0106 75.2475 88.2452 75.2475 88.2452C89.4881 88.0281 84.7481 78.8251 84.7481 78.8251C95.3061 84.1213 92.5202 73.8087 92.2873 73.0078L101.327 97.7038C99.8276 97.927 97.5753 99.0994 95.0465 103.236Z" fill="url(#paint1_linear_362_25792)"/>
<path d="M49.0432 26.3817L40.7629 17.4417C39.3 15.905 32.8809 18.4777 27.4819 23.6099C22.0828 28.7421 18.8914 34.1493 20.3555 35.686L28.6358 44.626C30.0987 46.1626 35.6619 43.2486 41.0622 38.1164C46.4613 32.9842 50.5073 27.9195 49.0432 26.3817Z" fill="url(#paint2_linear_362_25792)"/>
<path d="M47.4197 45.6301C44.8379 48.0895 42.7557 50.6176 41.4159 52.7657C40.0725 54.9344 39.4907 56.7147 39.9506 57.6579L39.9059 57.6977L27.5 43.5109C28.1639 40.9285 31.179 36.6853 35.4363 32.559C40.5288 27.6343 45.713 24.5308 47.8784 24.9759L60.0985 38.9528C58.883 37.6755 54.8913 39.4196 50.4735 42.9536C49.4717 43.7569 48.4445 44.6543 47.4197 45.6301Z" fill="#D3DEE7"/>
<path d="M74.0393 93.067C73.8064 92.9959 73.5565 92.8982 73.2656 92.7559Z" fill="url(#paint3_linear_362_25792)"/>
<path d="M75.2469 88.2491L45.322 57.0314L43.3775 54.9109L43.1855 54.7083L41.416 52.764C42.7558 50.6158 44.838 48.0877 47.4198 45.6284C48.4458 44.6538 49.473 43.7564 50.4748 42.9531L53.0506 45.6742L53.082 45.6983L55.6349 48.4013L84.7475 78.8278C84.7475 78.829 89.4875 88.032 75.2469 88.2491Z" fill="#33C6A9"/>
<path fill-rule="evenodd" clip-rule="evenodd" d="M50.0654 49.2826L49.0965 48.1565C48.9997 48.0448 48.8779 47.9586 48.7449 47.9077C48.6118 47.8568 48.4727 47.8432 48.3433 47.8684C48.2139 47.8936 48.0993 47.9567 48.0124 48.0505C47.9255 48.1442 47.8697 48.265 47.8514 48.3992L46.7923 55.7519C46.7737 55.8624 46.7819 55.9797 46.8163 56.0942C46.8506 56.2087 46.91 56.3171 46.9898 56.4106L49.1929 58.9713L50.0815 58.2068L48.0633 55.8611L48.9347 49.7925L49.8491 50.8552L49.4815 53.5281C49.4636 53.6393 49.4726 53.7576 49.5078 53.8731C49.543 53.9887 49.6035 54.0983 49.6843 54.193L51.8394 56.6978L52.728 55.9333L50.7602 53.6463L51.5975 47.538L56.2156 52.9055L57.1174 52.1296L51.7497 45.8909C51.6516 45.7776 51.5286 45.69 51.3945 45.6379C51.2604 45.5858 51.1205 45.5712 50.9905 45.5958C50.8606 45.6203 50.7457 45.6831 50.6589 45.777C50.5721 45.871 50.5168 45.9923 50.4992 46.1274L50.0654 49.2826ZM54.4456 54.4501L52.1914 51.8301C52.0652 52.7871 52.353 53.7525 52.9826 54.4843L53.588 55.188L54.4456 54.4501Z" fill="#0E6D64"/>
<path d="M42.9764 41.0487C38.7192 45.1749 35.704 49.4182 35.0402 52.0006L33.6484 50.406C33.9526 47.9286 37.0933 43.3199 41.7066 38.8571C46.3247 34.3871 51.025 31.4163 53.4704 31.2402L55.4198 33.4656C53.2519 33.0205 48.0689 36.124 42.9764 41.0487Z" fill="#E4EBF0"/>
<defs>
<linearGradient id="paint0_linear_362_25792" x1="97.4714" y1="99.9067" x2="103.768" y2="104.904" gradientUnits="userSpaceOnUse">
<stop stop-color="#475B80"/>
<stop offset="0.6559" stop-color="#2C3D51"/>
<stop offset="1" stop-color="#21313E"/>
</linearGradient>
<linearGradient id="paint1_linear_362_25792" x1="91.8428" y1="88.4967" x2="84.8587" y2="97.3092" gradientUnits="userSpaceOnUse">
<stop offset="0.0248" stop-color="#FFE4D9"/>
<stop offset="0.5623" stop-color="#FFC87A"/>
<stop offset="1" stop-color="#F9C788"/>
</linearGradient>
<linearGradient id="paint2_linear_362_25792" x1="20.0001" y1="31.0177" x2="49.3455" y2="31.0177" gradientUnits="userSpaceOnUse">
<stop stop-color="#1AAB9B"/>
<stop offset="0.447917" stop-color="#1AAB9B"/>
<stop offset="0.859375" stop-color="#129C81"/>
</linearGradient>
<linearGradient id="paint3_linear_362_25792" x1="73.3402" y1="92.665" x2="73.9661" y2="93.1618" gradientUnits="userSpaceOnUse">
<stop stop-color="#4DB39E"/>
<stop offset="1"/>
</linearGradient>
</defs>
</svg>
