<svg width="123" height="123" viewBox="0 0 123 123" fill="none" xmlns="http://www.w3.org/2000/svg">
<rect width="123" height="123" fill="white"/>
<path d="M17.9451 80.5609L16.107 81.7699C14.8156 78.6953 14.1737 76.3598 14.8219 76.041C14.8232 76.041 16.2579 77.9092 17.9451 80.5609Z" fill="#D6E7FA"/>
<path d="M23.2831 93.4103C23.2844 93.484 23.2856 93.5564 23.2844 93.63C21.185 94.0262 14 83.1577 14 83.1577L16.1083 81.7696L17.9464 80.5605C20.3249 84.3007 23.2095 89.5991 23.2831 93.4103Z" fill="url(#paint0_linear_362_25738)"/>
<path d="M109.999 46.0508C109.999 46.0508 73.5545 64.1469 67.4909 67.981C61.426 71.8151 26.4869 92.8855 26.4869 92.8855C26.4869 92.8855 26.4463 92.4372 26.3309 91.6688C25.8425 88.4519 24.012 79.6242 18.1755 74.5798C17.9725 74.402 17.7632 74.2293 17.5488 74.0629C17.5488 74.0629 38.34 64.3564 52.1404 57.628C57.2665 55.1299 61.4273 53.0421 63.2007 52.0147C64.7699 51.1054 67.6977 49.4252 71.2394 47.3944C82.4735 40.9543 99.8993 31.0001 99.8993 31.0001C99.8993 31.0001 108.733 30.7906 109.999 46.0508Z" fill="url(#paint1_linear_362_25738)"/>
<path d="M26.3311 91.6691L23.9032 93.2502L23.5645 93.4699L23.5619 93.4712L23.3425 93.6147L23.2841 93.6528C23.2841 93.6452 23.2841 93.6363 23.2841 93.6299C23.2854 93.5575 23.2841 93.4839 23.2828 93.4102C23.2093 89.599 20.3259 84.3006 17.9461 80.5617C16.259 77.91 14.8243 76.0418 14.8243 76.0418C14.8357 76.0368 14.8471 76.0317 14.8585 76.0266L18.177 74.5801C24.0122 79.6245 25.8427 88.4522 26.3311 91.6691Z" fill="url(#paint2_linear_362_25738)"/>
<path opacity="0.5" d="M73.5465 62.6123C72.637 64.8653 70.7126 66.6776 68.1413 67.39C63.6495 68.6321 58.876 66.0515 57.4781 61.623C56.7956 59.4628 57.0442 57.2644 57.9969 55.4318C58.9978 53.5052 60.7788 51.9901 63.0799 51.3513C67.5743 50.108 72.349 52.6886 73.7457 57.1171C74.3432 59.0081 74.2277 60.9321 73.5465 62.6123Z" fill="#9C9BAE"/>
<path d="M67.931 61.5053L67.6088 61.4011L60.9579 83.1573C58.6923 83.0405 55.436 76.5724 55.436 76.5724L48.6202 81.1037C51.1078 77.7408 51.9805 61.0125 55.9612 55.7535C57.0458 54.3209 62.2937 52.3613 62.2937 52.3613L67.931 61.5053Z" fill="url(#paint3_linear_362_25738)"/>
<path d="M83.9529 60.3856C84.5085 63.812 88.5805 68.1833 88.5805 68.1833L67.9314 61.5032L62.294 52.3605L66.6742 50.0148C66.6742 50.0148 76.5815 49.3672 79.7921 51.2353C83.0028 53.1022 91.8051 56.8855 91.8051 56.8855C91.0985 58.332 83.9529 60.3856 83.9529 60.3856Z" fill="url(#paint4_linear_362_25738)"/>
<path d="M71.241 47.3945L69.3762 51.5283L56.3776 57.6776L52.1407 57.6281C57.2668 55.13 61.4276 53.0422 63.201 52.0148C64.7714 51.1067 67.6992 49.4265 71.241 47.3945Z" fill="#1AAB9B"/>
<path d="M73.0016 60.8994C72.0921 63.1524 70.1677 64.9647 67.5964 65.6771C63.1045 66.9192 58.3311 64.3386 56.9331 59.9101C56.2507 57.7499 56.4993 55.5515 57.452 53.7189C58.4528 51.7923 60.2338 50.2772 62.535 49.6384C67.0294 48.3951 71.8041 50.9757 73.2008 55.4042C73.797 57.2965 73.6828 59.2192 73.0016 60.8994Z" fill="#142533"/>
<path d="M73.002 60.8985C71.9986 62.8162 70.2201 64.3287 67.924 64.9637C63.4322 66.2083 58.6587 63.629 57.2608 59.1967C56.6658 57.3095 56.7787 55.3931 57.4523 53.718C57.928 52.8023 58.58 51.9794 59.3805 51.2999C60.2634 50.5481 61.3277 49.9715 62.5366 49.6362C67.031 48.3929 71.8045 50.9735 73.2011 55.402C73.2366 55.5176 73.2709 55.6331 73.3026 55.7474C73.7821 57.528 73.6413 59.3212 73.002 60.8985Z" fill="url(#paint5_linear_362_25738)"/>
<path d="M71.014 59.7864C70.2605 61.2265 68.926 62.3619 67.2021 62.8382C63.8304 63.7729 60.2455 61.8349 59.1964 58.5088C58.7499 57.0927 58.8349 55.6526 59.341 54.3953C60.0933 52.9487 61.429 51.8108 63.1568 51.3321C66.5311 50.3986 70.1159 52.3366 71.1637 55.6614C71.6103 57.0813 71.5253 58.5253 71.014 59.7864Z" fill="url(#paint6_linear_362_25738)"/>
<path fill-rule="evenodd" clip-rule="evenodd" d="M65.0078 55.468L64.5455 54.6672C64.4992 54.5877 64.4315 54.5227 64.35 54.4796C64.2685 54.4366 64.1765 54.4171 64.0843 54.4234C63.9921 54.4297 63.9034 54.4615 63.8281 54.5153C63.7529 54.5691 63.6941 54.6427 63.6584 54.7279L61.6655 59.3889C61.6337 59.4587 61.619 59.535 61.6224 59.6115C61.6259 59.688 61.6474 59.7625 61.6853 59.8289L62.7369 61.6503L63.4725 61.2257L62.5092 59.5572L64.1522 55.71L64.5885 56.4657L63.8763 58.1605C63.8448 58.2309 63.8305 58.3078 63.8344 58.3851C63.8382 58.4623 63.8603 58.5377 63.8987 58.605L64.9274 60.3866L65.6629 59.962L64.7237 58.3353L66.3504 54.4598L68.5547 58.2777L69.3012 57.8467L66.7391 53.4091C66.6922 53.3285 66.6239 53.2626 66.5419 53.2186C66.4599 53.1746 66.3675 53.1544 66.275 53.1603C66.1826 53.1661 66.0937 53.1978 66.0186 53.2517C65.9434 53.3056 65.8848 53.3796 65.8495 53.4654L65.0078 55.468ZM67.0848 59.1409L66.0089 57.2773C65.7597 57.8794 65.8046 58.563 66.1303 59.1273L66.3749 59.5508L67.0848 59.1409Z" fill="white"/>
<path d="M73.3021 55.7496C72.8352 55.9147 72.3545 56.057 71.8585 56.1763C66.2947 57.5086 60.9377 55.3458 59.3799 51.3021C60.2628 50.5503 61.3271 49.9737 62.536 49.6384C67.0304 48.3951 71.8039 50.9757 73.2006 55.4042C73.2361 55.5185 73.2704 55.6341 73.3021 55.7496Z" fill="url(#paint7_linear_362_25738)"/>
<defs>
<linearGradient id="paint0_linear_362_25738" x1="30.2667" y1="107.084" x2="12.4839" y2="75.6586" gradientUnits="userSpaceOnUse">
<stop stop-color="#C2CCED"/>
<stop offset="0.0512" stop-color="#C4CEED"/>
<stop offset="1" stop-color="#E4EBF0"/>
</linearGradient>
<linearGradient id="paint1_linear_362_25738" x1="70.8142" y1="71.5999" x2="57.7902" y2="48.0997" gradientUnits="userSpaceOnUse">
<stop stop-color="#C2CCED"/>
<stop offset="0.2728" stop-color="#DFE4F6"/>
<stop offset="0.6118" stop-color="white"/>
<stop offset="1" stop-color="#E4EBF0"/>
</linearGradient>
<linearGradient id="paint2_linear_362_25738" x1="11.6426" y1="51.2345" x2="25.6835" y2="101.58" gradientUnits="userSpaceOnUse">
<stop stop-color="#C2CCED"/>
<stop offset="0.0512" stop-color="#C4CEED"/>
<stop offset="1" stop-color="#E4EBF0"/>
</linearGradient>
<linearGradient id="paint3_linear_362_25738" x1="48.6202" y1="67.7588" x2="67.931" y2="67.7588" gradientUnits="userSpaceOnUse">
<stop stop-color="#73D2C0"/>
<stop offset="0.447917" stop-color="#3CC5AA"/>
<stop offset="0.859375" stop-color="#1AAB9B"/>
</linearGradient>
<linearGradient id="paint4_linear_362_25738" x1="62.2941" y1="59.0445" x2="91.8051" y2="59.0445" gradientUnits="userSpaceOnUse">
<stop stop-color="#73D2C0"/>
<stop offset="0.447917" stop-color="#3CC5AA"/>
<stop offset="0.859375" stop-color="#1AAB9B"/>
</linearGradient>
<linearGradient id="paint5_linear_362_25738" x1="55.3117" y1="46.767" x2="80.9753" y2="73.9574" gradientUnits="userSpaceOnUse">
<stop stop-color="#475B80"/>
<stop offset="0.6559" stop-color="#2C3D51"/>
<stop offset="1" stop-color="#21313E"/>
</linearGradient>
<linearGradient id="paint6_linear_362_25738" x1="59.182" y1="58.525" x2="71.1787" y2="55.6593" gradientUnits="userSpaceOnUse">
<stop stop-color="#475B80"/>
<stop offset="0.6559" stop-color="#2C3D51"/>
<stop offset="1" stop-color="#21313E"/>
</linearGradient>
<linearGradient id="paint7_linear_362_25738" x1="67.1353" y1="37.947" x2="66.1215" y2="57.7973" gradientUnits="userSpaceOnUse">
<stop stop-color="white" stop-opacity="0.3"/>
<stop offset="1" stop-opacity="0"/>
</linearGradient>
</defs>
</svg>
