<svg width="32" height="32" viewBox="0 0 32 32" fill="none" xmlns="http://www.w3.org/2000/svg">
<path d="M15.4177 11.0543L15.4687 11.8761L14.6192 11.7755C11.5269 11.3897 8.82535 10.0816 6.53161 7.88448L5.41023 6.79434L5.12139 7.59937C4.50972 9.39392 4.90051 11.2891 6.17481 12.5637C6.85444 13.2681 6.70152 13.3688 5.52916 12.9495C5.12139 12.8153 4.76458 12.7147 4.7306 12.765C4.61166 12.8824 5.01944 14.4086 5.34226 15.0124C5.78402 15.8509 6.68453 16.6728 7.66999 17.1591L8.50253 17.5449L7.51707 17.5616C6.56559 17.5616 6.53161 17.5784 6.63356 17.9306C6.97337 19.0208 8.31563 20.178 9.81081 20.6811L10.8642 21.0333L9.94674 21.57C8.58749 22.3415 6.99036 22.7776 5.39324 22.8111C4.62866 22.8279 4 22.895 4 22.9453C4 23.113 6.07286 24.0522 7.2792 24.4212C10.8982 25.5113 15.1969 25.0417 18.4251 23.1801C20.7188 21.8551 23.0126 19.222 24.083 16.6727C24.6607 15.3143 25.2384 12.8321 25.2384 11.6413C25.2384 10.8698 25.2893 10.7692 26.2408 9.84675C26.8015 9.31006 27.3282 8.72306 27.4302 8.55534C27.6001 8.23669 27.5831 8.23669 26.7165 8.5218C25.2723 9.02495 25.0684 8.95786 25.7821 8.20314C26.3088 7.66645 26.9374 6.69371 26.9374 6.40859C26.9374 6.35828 26.6826 6.44213 26.3937 6.59308C26.0879 6.76079 25.4083 7.01237 24.8985 7.16331L23.981 7.44842L23.1485 6.89497C22.6898 6.59308 22.0441 6.25765 21.7043 6.15702C20.8378 5.92222 19.5125 5.95576 18.7309 6.22411C16.6071 6.97882 15.2648 8.92432 15.4177 11.0543Z" fill="#4AA1EC"/>
</svg>
