<svg width="195" height="35" viewBox="0 0 195 35" fill="none" xmlns="http://www.w3.org/2000/svg">
<path fill-rule="evenodd" clip-rule="evenodd" d="M47.1121 3.0989V34.9193H41.7591V7.54265L20.9772 23.3338V34.9987H15.703V22.2229C15.7053 21.7418 15.8207 21.268 16.0396 20.8404C16.2585 20.4129 16.5748 20.0436 16.9625 19.763L26.0562 12.8592V7.44594L5.27422 23.0347V34.9987H0V21.938C0.00236272 21.463 0.117732 20.9953 0.33665 20.5733C0.555569 20.1512 0.871819 19.7867 1.25952 19.5096L26.4498 0.630769C26.9062 0.283704 27.4509 0.0703142 28.0226 0.0146143C28.5943 -0.0410856 29.1703 0.0631169 29.6857 0.315496C30.2011 0.567875 30.6355 0.958394 30.94 1.44312C31.2445 1.92785 31.4069 2.48755 31.4091 3.05917V8.79537L42.1527 0.638983C42.6092 0.287411 43.1539 0.0712254 43.7256 0.0148021C44.2973 -0.0416211 44.8733 0.0639589 45.3887 0.319616C45.9041 0.575272 46.3385 0.970862 46.643 1.46188C46.9474 1.95291 47.1099 2.51985 47.1121 3.0989ZM31.1797 34.9979V21.6348L28.4352 23.7417C26.9561 24.8773 26.089 26.6361 26.089 28.5009V34.9979H31.1797Z" fill="#333333"/>
<path d="M69.9785 2.15775C69.9785 0.966055 70.9324 0 72.109 0C72.8698 0 73.5729 0.410942 73.9536 1.07813L78.521 9.08324L83.1918 1.01668C83.5565 0.386897 84.2234 0 84.9442 0C86.0662 0 86.9757 0.921187 86.9757 2.05753V15.7047H84.2088V3.98505L80.4566 10.1616C80.0316 10.8611 79.2788 11.2873 78.4678 11.2873C77.6551 11.2873 76.9008 10.8592 76.4764 10.1571L72.7455 3.98505V15.7047H69.9785V2.15775Z" fill="#333333"/>
<path d="M97.6791 1.42508C98.0178 0.564566 98.8401 0 99.7548 0C100.67 0 101.493 0.565172 101.831 1.42637L107.441 15.7047H104.598L102.852 11.6769H96.4832L94.7374 15.7047H92.0582L97.6791 1.42508ZM101.885 9.1055L99.6674 3.23924L97.4385 9.1055H101.885Z" fill="#333333"/>
<path d="M114.928 7.24656L121.677 0.373478C121.912 0.134416 122.231 0 122.564 0C123.679 0 124.236 1.36648 123.446 2.16375L118.091 7.56937L125.985 15.7047H122.395L114.928 8.15933V15.7047H112.161V1.40122C112.161 0.627346 112.781 0 113.545 0C114.309 0 114.928 0.627346 114.928 1.40122V7.24656Z" fill="#333333"/>
<path d="M133.015 15.7047C131.634 15.7047 130.514 14.5706 130.514 13.1717V2.53302C130.514 1.13407 131.634 0 133.015 0H140.186C140.89 0 141.461 0.57811 141.461 1.29124C141.461 2.00438 140.89 2.58249 140.186 2.58249H133.292V6.3783H139.582C140.287 6.3783 140.857 6.95641 140.857 7.66955C140.857 8.38268 140.287 8.96079 139.582 8.96079H133.292V13.2353H140.242C140.915 13.2353 141.461 13.7881 141.461 14.47C141.461 15.1519 140.915 15.7047 140.242 15.7047H133.015Z" fill="#333333"/>
<path d="M160.219 4.53049C160.219 5.03511 160.157 5.51747 160.032 5.97757C159.915 6.43025 159.725 6.86809 159.461 7.29108C159.205 7.71407 158.85 8.09254 158.396 8.42649C157.95 8.76043 157.419 9.02016 156.804 9.20568L161.515 15.7047H157.913L153.543 9.68434H150.897V15.7047H148.13V2.53302C148.13 1.13407 149.249 0 150.631 0H154.773C155.102 0 155.402 0.0111314 155.673 0.0333943C155.951 0.0482362 156.284 0.0927618 156.672 0.166971C157.068 0.23376 157.415 0.326522 157.715 0.445257C158.023 0.563992 158.338 0.738384 158.66 0.968434C158.989 1.19848 159.26 1.46935 159.472 1.78103C159.692 2.08529 159.871 2.47489 160.01 2.94983C160.149 3.41735 160.219 3.94423 160.219 4.53049ZM150.897 2.57136V7.10185H153.444C153.883 7.10185 154.271 7.087 154.608 7.05732C154.945 7.02764 155.292 6.96827 155.651 6.87922C156.01 6.78275 156.303 6.65288 156.53 6.48962C156.764 6.32636 156.954 6.10002 157.1 5.8106C157.254 5.52118 157.331 5.17982 157.331 4.78651C157.331 3.30974 156.207 2.57136 153.96 2.57136H150.897Z" fill="#333333"/>
<path d="M97.0116 34.999C95.6675 35.0137 94.3432 34.6705 93.1709 34.0037C92.022 33.3491 91.0671 32.3942 90.4056 31.2385C89.7222 30.01 89.3718 28.62 89.3899 27.2097C89.3662 25.8072 89.7124 24.4238 90.3928 23.2025C91.0521 22.035 92.0125 21.0716 93.1709 20.4157C94.3432 19.7489 95.6675 19.4057 97.0116 19.4204C98.0048 19.4148 98.9893 19.6074 99.9092 19.9873C100.818 20.3421 101.645 20.881 102.342 21.5711C102.483 21.6988 102.594 21.8566 102.668 22.0332C102.742 22.2098 102.776 22.4007 102.768 22.5924C102.77 22.7769 102.735 22.9599 102.666 23.1307C102.597 23.3015 102.496 23.4568 102.367 23.5876C102.24 23.72 102.087 23.8244 101.918 23.8944C101.749 23.9644 101.568 23.9984 101.386 23.9944C101.012 23.9943 100.653 23.8487 100.383 23.5876C99.9583 23.1546 99.4497 22.8157 98.8893 22.5924C98.3329 22.3489 97.7328 22.2252 97.1268 22.2288C96.2879 22.2233 95.4633 22.4492 94.7413 22.8823C94.0255 23.3037 93.4357 23.9138 93.0343 24.6479C92.6089 25.4442 92.3942 26.3388 92.4113 27.2443C92.3942 28.1498 92.6089 29.0444 93.0343 29.8407C93.4357 30.5747 94.0255 31.1849 94.7413 31.6063C95.4592 32.0281 96.2758 32.2463 97.1055 32.2381C97.7089 32.2415 98.3073 32.1269 98.8679 31.9006C99.4261 31.6611 99.9334 31.3143 100.362 30.8793C100.632 30.6183 100.991 30.4726 101.364 30.4725C101.547 30.4685 101.728 30.5026 101.897 30.5726C102.066 30.6425 102.218 30.7469 102.346 30.8793C102.476 31.0086 102.579 31.1637 102.648 31.3349C102.717 31.506 102.751 31.6897 102.747 31.8746C102.755 32.0662 102.72 32.2572 102.647 32.4338C102.573 32.6104 102.461 32.7682 102.32 32.8959C101.622 33.5881 100.795 34.1337 99.8878 34.5013C98.9685 34.8491 97.9927 35.0179 97.0116 34.999V34.999Z" fill="#333333"/>
<path d="M131.185 19.3933C132.512 19.3747 133.82 19.7105 134.979 20.367C136.108 21.0026 137.042 21.9433 137.676 23.0846C138.341 24.2952 138.68 25.6626 138.657 27.0485C138.68 28.4343 138.341 29.8017 137.676 31.0124C137.042 32.1537 136.108 33.0944 134.979 33.73C133.82 34.3864 132.512 34.7222 131.185 34.7036H127.686C127.488 34.7093 127.29 34.6738 127.106 34.5994C126.922 34.525 126.755 34.4132 126.615 34.2709C126.471 34.1304 126.357 33.9616 126.28 33.7748C126.203 33.588 126.164 33.3872 126.167 33.1847V20.9555C126.161 20.7526 126.198 20.5508 126.275 20.3636C126.353 20.1763 126.468 20.0078 126.615 19.8693C126.755 19.727 126.922 19.6152 127.106 19.5408C127.29 19.4664 127.488 19.4309 127.686 19.4366L131.185 19.3933ZM131.185 31.8951C131.985 31.909 132.773 31.6962 133.46 31.2806C134.136 30.8804 134.686 30.2917 135.043 29.5843C135.441 28.801 135.64 27.9295 135.623 27.0485C135.642 26.1742 135.442 25.3094 135.043 24.5343C134.694 23.8126 134.143 23.2107 133.46 22.8033C132.773 22.3878 131.985 22.175 131.185 22.1888H129.201V31.8822L131.185 31.8951Z" fill="#333333"/>
<path d="M187.707 34.6643V28.2299L183.76 21.4835C183.613 21.2465 183.536 20.9717 183.538 20.6916C183.536 20.4313 183.596 20.1744 183.713 19.9429C183.848 19.7021 184.04 19.4996 184.272 19.3544C184.509 19.2114 184.778 19.1325 185.053 19.1251C185.312 19.1225 185.567 19.1945 185.787 19.3328C186.025 19.4487 186.221 19.6381 186.346 19.8737L189.222 25.0666L192.124 19.8737C192.244 19.6432 192.43 19.4547 192.658 19.3328C192.888 19.1963 193.15 19.1246 193.417 19.1251C193.693 19.1325 193.962 19.2114 194.198 19.3544C194.426 19.4969 194.611 19.7006 194.732 19.9429C194.865 20.1692 194.934 20.4281 194.932 20.6916C194.935 20.9717 194.858 21.2465 194.71 21.4835L190.742 28.2299V34.6643H187.707Z" fill="#333333"/>
<path d="M146.621 34.7184C145.236 34.7184 144.113 33.5924 144.113 32.2033V21.6401C144.113 20.251 145.236 19.125 146.621 19.125H153.813C154.519 19.125 155.091 19.699 155.091 20.4071C155.091 21.1152 154.519 21.6892 153.813 21.6892H146.899V25.4581H153.207C153.913 25.4581 154.486 26.0321 154.486 26.7402C154.486 27.4483 153.913 28.0223 153.207 28.0223H146.899V32.2665H153.869C154.544 32.2665 155.091 32.8154 155.091 33.4924C155.091 34.1695 154.544 34.7184 153.869 34.7184H146.621Z" fill="#333333"/>
<path d="M112.089 20.54C112.429 19.6856 113.253 19.125 114.171 19.125C115.088 19.125 115.913 19.6862 116.253 20.5413L121.879 34.7184H119.027L117.276 30.7191H110.89L109.139 34.7184H106.452L112.089 20.54ZM116.307 28.166L114.083 22.3413L111.848 28.166H116.307Z" fill="#333333"/>
<path d="M75.5186 20.54C75.8583 19.6856 76.6829 19.125 77.6002 19.125C78.5179 19.125 79.3429 19.6862 79.6823 20.5413L85.3085 34.7184H82.4566L80.7059 30.7191H74.3194L72.5686 34.7184H69.8818L75.5186 20.54ZM79.7369 28.166L77.5126 22.3413L75.2773 28.166H79.7369Z" fill="#333333"/>
<path d="M160.588 21.2675C160.588 20.0842 161.544 19.125 162.724 19.125C163.487 19.125 164.192 19.533 164.574 20.1955L169.155 28.1439L173.839 20.1345C174.204 19.5092 174.873 19.125 175.596 19.125C176.721 19.125 177.633 20.0397 177.633 21.1679V34.7184H174.858V23.0818L171.096 29.2146C170.669 29.9092 169.914 30.3323 169.101 30.3323C168.286 30.3323 167.53 29.9073 167.104 29.2102L163.363 23.0818V34.7184H160.588V21.2675Z" fill="#333333"/>
</svg>
