<svg width="38" height="29" viewBox="0 0 38 29" fill="none" xmlns="http://www.w3.org/2000/svg">
<path fill-rule="evenodd" clip-rule="evenodd" d="M25.334 7.09637V2.46942C25.3322 2.00836 25.2012 1.55692 24.9556 1.16595C24.71 0.774975 24.3596 0.45999 23.9439 0.256426C23.5282 0.052862 23.0636 -0.0311857 22.6025 0.0137407C22.1414 0.0586672 21.702 0.230783 21.3339 0.51072L1.0159 15.738C0.703192 15.9615 0.448111 16.2555 0.271536 16.596C0.09496 16.9364 0.00190573 17.3136 0 17.6967V28.2312H4.25408V18.5813L21.0164 6.0077V10.3742L13.6819 15.9424C13.3692 16.1688 13.1141 16.4666 12.9376 16.8114C12.761 17.1563 12.6679 17.5384 12.666 17.9265V28.2312H16.9201V18.8226L33.6824 6.08571V28.1672H38V2.50146C37.9983 2.03441 37.8672 1.57713 37.6216 1.18108C37.3761 0.785032 37.0257 0.465957 36.61 0.259749C36.1942 0.0535411 35.7297 -0.0316177 35.2685 0.0138922C34.8074 0.0594021 34.3681 0.233773 33.9999 0.517345L25.334 7.09637ZM25.1487 28.2309V17.4525L22.6069 19.4039C21.6207 20.161 21.0427 21.3335 21.0427 22.5767V28.2309H25.1487Z" fill="#333333"/>
</svg>
