<svg width="38" height="29" viewBox="0 0 38 29" fill="none" xmlns="http://www.w3.org/2000/svg">
<path fill-rule="evenodd" clip-rule="evenodd" d="M25.334 7.09588V2.46893C25.3322 2.00787 25.2012 1.55643 24.9556 1.16546C24.71 0.774487 24.3596 0.459502 23.9439 0.255938C23.5282 0.0523738 23.0636 -0.031674 22.6025 0.0132525C22.1414 0.0581789 21.702 0.230295 21.3339 0.510231L1.0159 15.7375C0.703192 15.961 0.448111 16.255 0.271536 16.5955C0.09496 16.9359 0.00190573 17.3131 0 17.6962V28.2307H4.25408V18.5808L21.0164 6.00721V10.3737L13.6819 15.9419C13.3692 16.1683 13.1141 16.4661 12.9376 16.811C12.761 17.1558 12.6679 17.5379 12.666 17.926V28.2307H16.9201V18.8221L33.6824 6.08523V28.1667H38V2.50098C37.9983 2.03393 37.8672 1.57664 37.6216 1.18059C37.3761 0.784544 37.0257 0.465468 36.61 0.259261C36.1942 0.0530528 35.7297 -0.032106 35.2685 0.0134039C34.8074 0.0589138 34.3681 0.233285 33.9999 0.516856L25.334 7.09588ZM25.1487 28.2305V17.452L22.6069 19.4034C21.6207 20.1605 21.0427 21.333 21.0427 22.5763V28.2305H25.1487Z" fill="white"/>
</svg>
