<svg width="227" height="35" viewBox="0 0 227 35" fill="none" xmlns="http://www.w3.org/2000/svg">
<path d="M75.9384 11.0074H78.7261C78.7793 11.3963 79.0003 11.7132 79.389 11.9582C79.7831 12.2033 80.2543 12.3258 80.8028 12.3258C81.3673 12.3258 81.8226 12.2139 82.1687 11.9902C82.5148 11.7612 82.6879 11.4708 82.6879 11.1193C82.6879 10.7997 82.5521 10.552 82.2805 10.3762C82.0143 10.1951 81.551 10.0353 80.8907 9.89681L79.381 9.60117C78.3214 9.39876 77.5199 9.0179 76.9768 8.4586C76.4336 7.89397 76.1621 7.1722 76.1621 6.29329C76.1621 5.18534 76.5881 4.29578 77.4401 3.62461C78.2974 2.95345 79.3997 2.61786 80.7469 2.61786C82.174 2.61786 83.2949 2.94013 84.1096 3.58466C84.9297 4.22387 85.3477 5.08946 85.3637 6.18143H82.6639C82.6373 5.76595 82.4509 5.43835 82.1048 5.19865C81.7587 4.95895 81.3167 4.8391 80.7789 4.8391C80.2676 4.8391 79.855 4.94563 79.5408 5.1587C79.2319 5.37177 79.0775 5.65409 79.0775 6.00565C79.0775 6.3146 79.2106 6.56495 79.4769 6.75671C79.7485 6.94315 80.1878 7.09762 80.7948 7.22014L82.2885 7.49979C83.4227 7.71818 84.2561 8.09372 84.7886 8.62639C85.3211 9.15906 85.5873 9.88083 85.5873 10.7917C85.5873 11.9369 85.148 12.8505 84.2694 13.5323C83.3908 14.2088 82.2086 14.547 80.7229 14.547C79.2479 14.547 78.0844 14.2354 77.2324 13.6122C76.3857 12.989 75.9544 12.1207 75.9384 11.0074Z" fill="white"/>
<path d="M95.7353 5.45433V14.3473H92.9796V12.6694H92.9237C92.7214 13.25 92.3806 13.7001 91.9013 14.0197C91.4274 14.3393 90.8576 14.4991 90.192 14.4991C89.2175 14.4991 88.4294 14.2008 87.8277 13.6042C87.2259 13.0076 86.9251 12.1926 86.9251 11.1592V5.45433H89.7527V10.536C89.7527 11.0634 89.8938 11.4708 90.176 11.7585C90.4636 12.0461 90.8443 12.19 91.3182 12.19C91.7815 12.19 92.1596 12.0328 92.4524 11.7185C92.7506 11.3989 92.8997 10.9835 92.8997 10.4721V5.45433H95.7353Z" fill="white"/>
<path d="M97.1609 8.14698C97.1609 7.26275 97.515 6.56229 98.2233 6.0456C98.9368 5.52358 99.898 5.26257 101.107 5.26257C102.305 5.26257 103.255 5.52891 103.958 6.06158C104.661 6.59425 105.018 7.31602 105.029 8.22688H102.441C102.43 7.90728 102.3 7.65426 102.049 7.46783C101.804 7.27607 101.48 7.18019 101.075 7.18019C100.718 7.18019 100.43 7.2521 100.212 7.39592C99.9938 7.53974 99.8847 7.72884 99.8847 7.96321C99.8847 8.3201 100.225 8.57046 100.907 8.71428L102.744 9.0978C103.633 9.28423 104.275 9.56921 104.669 9.95274C105.069 10.3363 105.268 10.8636 105.268 11.5348C105.268 12.4456 104.89 13.1754 104.134 13.724C103.378 14.2674 102.379 14.539 101.139 14.539C99.8767 14.539 98.8782 14.2727 98.1434 13.74C97.4085 13.202 97.0118 12.4749 96.9533 11.5587H99.701C99.7436 11.8943 99.8953 12.1553 100.156 12.3418C100.422 12.5282 100.769 12.6214 101.195 12.6214C101.589 12.6214 101.898 12.5548 102.121 12.4217C102.35 12.2832 102.465 12.0941 102.465 11.8544C102.465 11.6679 102.387 11.5188 102.233 11.4069C102.084 11.2951 101.834 11.2018 101.482 11.1273L99.8128 10.7757C98.9448 10.5946 98.2845 10.2803 97.8319 9.83289C97.3846 9.38544 97.1609 8.82347 97.1609 8.14698Z" fill="white"/>
<path d="M107.205 3.48878H110.033V5.45433H111.638V7.54773H110.033V11.343C110.033 11.9662 110.376 12.2778 111.063 12.2778C111.26 12.2778 111.452 12.2645 111.638 12.2379V14.2514C111.313 14.326 110.898 14.3632 110.392 14.3632C109.253 14.3632 108.435 14.1741 107.94 13.796C107.45 13.4124 107.205 12.7839 107.205 11.9103V7.54773H106.015V5.45433H107.205V3.48878Z" fill="white"/>
<path d="M116.682 12.5016C117.151 12.5016 117.547 12.3764 117.872 12.126C118.202 11.8704 118.367 11.5428 118.367 11.1433V10.528L116.73 10.6399C116.331 10.6665 116.022 10.7624 115.803 10.9275C115.59 11.0927 115.484 11.311 115.484 11.5827C115.484 11.865 115.59 12.0887 115.803 12.2539C116.022 12.419 116.315 12.5016 116.682 12.5016ZM115.684 14.4671C114.837 14.4671 114.123 14.2168 113.543 13.7161C112.968 13.21 112.68 12.5628 112.68 11.7745C112.68 10.9488 112.987 10.307 113.599 9.84887C114.217 9.39077 115.111 9.12443 116.283 9.04986L118.367 8.92202V8.41065C118.367 8.05377 118.248 7.77944 118.008 7.58768C117.774 7.39059 117.454 7.29205 117.05 7.29205C116.671 7.29205 116.36 7.3826 116.115 7.56371C115.87 7.73949 115.726 7.96854 115.684 8.25085H113.136C113.173 7.35064 113.556 6.62887 114.286 6.08555C115.021 5.5369 115.987 5.26257 117.185 5.26257C118.367 5.26257 119.321 5.53956 120.045 6.09354C120.769 6.64219 121.131 7.36396 121.131 8.25884V14.3473H118.383V13.0689H118.328C118.093 13.5056 117.731 13.8492 117.241 14.0996C116.757 14.3446 116.237 14.4671 115.684 14.4671Z" fill="white"/>
<path d="M122.732 14.3473V5.45433H125.568V14.3473H122.732ZM124.146 4.71925C123.742 4.71925 123.398 4.58608 123.116 4.31975C122.834 4.05341 122.693 3.72049 122.693 3.32099C122.693 2.92681 122.834 2.59656 123.116 2.33022C123.398 2.05856 123.742 1.92273 124.146 1.92273C124.551 1.92273 124.894 2.05856 125.177 2.33022C125.464 2.59656 125.608 2.92681 125.608 3.32099C125.608 3.72049 125.467 4.05341 125.185 4.31975C124.902 4.58608 124.556 4.71925 124.146 4.71925Z" fill="white"/>
<path d="M127.177 14.3473V5.45433H129.925V7.12426H129.981C130.221 6.53299 130.583 6.08289 131.067 5.77394C131.552 5.45966 132.135 5.30252 132.817 5.30252C133.807 5.30252 134.582 5.59816 135.141 6.18942C135.705 6.78068 135.988 7.601 135.988 8.65036V14.3473H133.152V9.2576C133.152 8.74091 133.016 8.33875 132.745 8.0511C132.478 7.75813 132.103 7.61165 131.618 7.61165C131.139 7.61165 130.75 7.77145 130.452 8.09105C130.154 8.41066 130.005 8.82348 130.005 9.32951V14.3473H127.177Z" fill="white"/>
<path d="M141.183 12.5016C141.652 12.5016 142.049 12.3764 142.373 12.126C142.704 11.8704 142.869 11.5428 142.869 11.1433V10.528L141.231 10.6399C140.832 10.6665 140.523 10.7624 140.305 10.9275C140.092 11.0927 139.985 11.311 139.985 11.5827C139.985 11.865 140.092 12.0887 140.305 12.2539C140.523 12.419 140.816 12.5016 141.183 12.5016ZM140.185 14.4671C139.338 14.4671 138.625 14.2168 138.044 13.7161C137.469 13.21 137.182 12.5628 137.182 11.7745C137.182 10.9488 137.488 10.307 138.1 9.84887C138.718 9.39077 139.612 9.12443 140.784 9.04986L142.869 8.92202V8.41065C142.869 8.05377 142.749 7.77944 142.509 7.58768C142.275 7.39059 141.955 7.29205 141.551 7.29205C141.173 7.29205 140.861 7.3826 140.616 7.56371C140.371 7.73949 140.227 7.96854 140.185 8.25085H137.637C137.674 7.35064 138.058 6.62887 138.787 6.08555C139.522 5.5369 140.488 5.26257 141.687 5.26257C142.869 5.26257 143.822 5.53956 144.546 6.09354C145.27 6.64219 145.632 7.36396 145.632 8.25884V14.3473H142.885V13.0689H142.829C142.594 13.5056 142.232 13.8492 141.742 14.0996C141.258 14.3446 140.739 14.4671 140.185 14.4671Z" fill="white"/>
<path d="M152.873 14.4671C152.229 14.4671 151.667 14.3233 151.188 14.0357C150.714 13.748 150.362 13.3432 150.133 12.8212H150.077V14.3473H147.266V2.24233H150.093V7.01239H150.157C150.386 6.47972 150.735 6.06691 151.204 5.77394C151.672 5.48097 152.221 5.33448 152.849 5.33448C153.973 5.33448 154.846 5.73399 155.469 6.53299C156.092 7.332 156.403 8.45327 156.403 9.89681C156.403 11.3403 156.092 12.4643 155.469 13.2686C154.851 14.0676 153.986 14.4671 152.873 14.4671ZM153.041 8.20291C152.732 7.77678 152.319 7.56371 151.803 7.56371C151.286 7.56371 150.871 7.77678 150.557 8.20291C150.242 8.62905 150.085 9.19635 150.085 9.9048C150.085 10.6132 150.24 11.1805 150.549 11.6067C150.863 12.0275 151.281 12.2379 151.803 12.2379C152.324 12.2379 152.74 12.0275 153.049 11.6067C153.357 11.1805 153.512 10.6106 153.512 9.89681C153.512 9.18835 153.355 8.62372 153.041 8.20291Z" fill="white"/>
<path d="M157.765 14.3473V2.24233H160.593V14.3473H157.765Z" fill="white"/>
<path d="M166.411 7.27607C165.959 7.27607 165.578 7.42788 165.269 7.7315C164.96 8.03512 164.787 8.42397 164.75 8.89805H168.057C168.03 8.40799 167.865 8.01648 167.562 7.72351C167.263 7.42521 166.88 7.27607 166.411 7.27607ZM168.121 11.5507H170.677C170.538 12.4616 170.088 13.1887 169.327 13.732C168.571 14.27 167.618 14.539 166.467 14.539C165.062 14.539 163.959 14.1315 163.161 13.3166C162.362 12.5016 161.962 11.3776 161.962 9.94475C161.962 8.51186 162.359 7.37461 163.153 6.53299C163.946 5.68605 165.019 5.26257 166.371 5.26257C167.697 5.26257 168.754 5.6674 169.543 6.47706C170.336 7.28139 170.733 8.36005 170.733 9.71303V10.52H164.718V10.6958C164.718 11.2391 164.883 11.6813 165.213 12.0222C165.543 12.3577 165.975 12.5255 166.507 12.5255C166.901 12.5255 167.242 12.4403 167.53 12.2699C167.817 12.0941 168.014 11.8544 168.121 11.5507Z" fill="white"/>
<path d="M84.2055 28.7614V31.1265H76.3058V19.5968H84.2055V21.9619H79.2373V24.255H83.91V26.4123H79.2373V28.7614H84.2055Z" fill="white"/>
<path d="M94.2417 25.7172H91.6457C91.5978 25.2538 91.4354 24.8862 91.1585 24.6146C90.8869 24.3376 90.5381 24.1991 90.1121 24.1991C89.5903 24.1991 89.1802 24.4175 88.882 24.8543C88.5892 25.2857 88.4427 25.893 88.4427 26.676C88.4427 27.4697 88.5892 28.0822 88.882 28.5137C89.1749 28.9398 89.5849 29.1529 90.1121 29.1529C90.5434 29.1529 90.8922 29.0277 91.1585 28.7774C91.43 28.5217 91.5925 28.1621 91.6457 27.6987H94.2496C94.207 28.8173 93.8103 29.7016 93.0595 30.3514C92.314 30.996 91.3209 31.3182 90.0802 31.3182C88.6903 31.3182 87.5934 30.9054 86.7893 30.0798C85.9852 29.2541 85.5832 28.1195 85.5832 26.676C85.5832 25.2484 85.9852 24.1192 86.7893 23.2882C87.5934 22.4572 88.685 22.0418 90.0642 22.0418C91.2996 22.0418 92.2927 22.3773 93.0435 23.0485C93.7997 23.7197 94.1991 24.6092 94.2417 25.7172Z" fill="white"/>
<path d="M103.072 30.0957C102.268 30.9107 101.16 31.3182 99.7489 31.3182C98.3378 31.3182 97.2302 30.9107 96.4261 30.0957C95.622 29.2754 95.22 28.1355 95.22 26.676C95.22 25.2431 95.6273 24.1138 96.4421 23.2882C97.2568 22.4572 98.3591 22.0418 99.7489 22.0418C101.144 22.0418 102.246 22.4546 103.056 23.2802C103.87 24.1005 104.278 25.2325 104.278 26.676C104.278 28.1408 103.876 29.2808 103.072 30.0957ZM98.5268 28.5696C98.8197 29.0118 99.227 29.2328 99.7489 29.2328C100.271 29.2328 100.678 29.0118 100.971 28.5696C101.264 28.1222 101.41 27.491 101.41 26.676C101.41 25.8823 101.261 25.2591 100.963 24.8063C100.665 24.3536 100.26 24.1272 99.7489 24.1272C99.2324 24.1272 98.825 24.3536 98.5268 24.8063C98.2339 25.2538 98.0875 25.877 98.0875 26.676C98.0875 27.491 98.2339 28.1222 98.5268 28.5696Z" fill="white"/>
<path d="M105.424 24.9262C105.424 24.0419 105.778 23.3415 106.486 22.8248C107.2 22.3028 108.161 22.0418 109.37 22.0418C110.568 22.0418 111.518 22.3081 112.221 22.8408C112.924 23.3734 113.281 24.0952 113.292 25.0061H110.704C110.693 24.6865 110.562 24.4335 110.312 24.247C110.067 24.0553 109.742 23.9594 109.338 23.9594C108.981 23.9594 108.693 24.0313 108.475 24.1751C108.257 24.3189 108.148 24.508 108.148 24.7424C108.148 25.0993 108.488 25.3496 109.17 25.4935L111.007 25.877C111.896 26.0634 112.538 26.3484 112.932 26.7319C113.331 27.1154 113.531 27.6428 113.531 28.314C113.531 29.2248 113.153 29.9546 112.397 30.5032C111.641 31.0466 110.642 31.3182 109.402 31.3182C108.14 31.3182 107.141 31.0519 106.406 30.5192C105.671 29.9812 105.275 29.2541 105.216 28.3379H107.964C108.006 28.6735 108.158 28.9345 108.419 29.121C108.685 29.3074 109.032 29.4006 109.458 29.4006C109.852 29.4006 110.16 29.334 110.384 29.2009C110.613 29.0624 110.728 28.8733 110.728 28.6336C110.728 28.4471 110.65 28.298 110.496 28.1861C110.347 28.0743 110.097 27.981 109.745 27.9065L108.076 27.5549C107.208 27.3738 106.547 27.0595 106.095 26.6121C105.648 26.1646 105.424 25.6027 105.424 24.9262Z" fill="white"/>
<path d="M116.011 34.3784C115.377 34.3784 115.034 34.3731 114.981 34.3624V32.2211C115.007 32.2264 115.172 32.2291 115.476 32.2291C116.413 32.2291 116.93 31.9681 117.026 31.4461L117.066 31.1984L114.03 22.2335H117.153L118.791 28.9851H118.847L120.484 22.2335H123.471L120.612 31.1105C120.234 32.293 119.691 33.132 118.983 33.6273C118.28 34.1281 117.289 34.3784 116.011 34.3784Z" fill="white"/>
<path d="M124.17 24.9262C124.17 24.0419 124.524 23.3415 125.233 22.8248C125.946 22.3028 126.907 22.0418 128.116 22.0418C129.314 22.0418 130.265 22.3081 130.968 22.8408C131.671 23.3734 132.027 24.0952 132.038 25.0061H129.45C129.439 24.6865 129.309 24.4335 129.059 24.247C128.814 24.0553 128.489 23.9594 128.084 23.9594C127.727 23.9594 127.44 24.0313 127.221 24.1751C127.003 24.3189 126.894 24.508 126.894 24.7424C126.894 25.0993 127.235 25.3496 127.916 25.4935L129.754 25.877C130.643 26.0634 131.284 26.3484 131.679 26.7319C132.078 27.1154 132.278 27.6428 132.278 28.314C132.278 29.2248 131.899 29.9546 131.143 30.5032C130.387 31.0466 129.389 31.3182 128.148 31.3182C126.886 31.3182 125.888 31.0519 125.153 30.5192C124.418 29.9812 124.021 29.2541 123.963 28.3379H126.71C126.753 28.6735 126.905 28.9345 127.166 29.121C127.432 29.3074 127.778 29.4006 128.204 29.4006C128.598 29.4006 128.907 29.334 129.13 29.2009C129.359 29.0624 129.474 28.8733 129.474 28.6336C129.474 28.4471 129.397 28.298 129.242 28.1861C129.093 28.0743 128.843 27.981 128.491 27.9065L126.822 27.5549C125.954 27.3738 125.294 27.0595 124.841 26.6121C124.394 26.1646 124.17 25.6027 124.17 24.9262Z" fill="white"/>
<path d="M134.214 20.268H137.042V22.2335H138.647V24.3269H137.042V28.1222C137.042 28.7454 137.385 29.057 138.072 29.057C138.269 29.057 138.461 29.0437 138.647 29.0171V31.0306C138.323 31.1051 137.907 31.1424 137.401 31.1424C136.262 31.1424 135.444 30.9533 134.949 30.5751C134.459 30.1916 134.214 29.5631 134.214 28.6895V24.3269H133.024V22.2335H134.214V20.268Z" fill="white"/>
<path d="M144.147 24.0553C143.694 24.0553 143.313 24.2071 143.004 24.5107C142.696 24.8143 142.523 25.2032 142.485 25.6772H145.792C145.766 25.1872 145.6 24.7957 145.297 24.5027C144.999 24.2044 144.615 24.0553 144.147 24.0553ZM145.856 28.3299H148.412C148.274 29.2408 147.824 29.9679 147.062 30.5112C146.306 31.0492 145.353 31.3182 144.203 31.3182C142.797 31.3182 141.695 30.9107 140.896 30.0957C140.097 29.2808 139.698 28.1568 139.698 26.7239C139.698 25.2911 140.094 24.1538 140.888 23.3122C141.681 22.4652 142.754 22.0418 144.107 22.0418C145.433 22.0418 146.49 22.4466 147.278 23.2563C148.071 24.0606 148.468 25.1392 148.468 26.4922V27.2992H142.453V27.475C142.453 28.0183 142.618 28.4604 142.949 28.8014C143.279 29.1369 143.71 29.3047 144.243 29.3047C144.637 29.3047 144.977 29.2195 145.265 29.049C145.553 28.8733 145.75 28.6336 145.856 28.3299Z" fill="white"/>
<path d="M149.774 31.1265V22.2335H152.521V23.9434H152.577C152.753 23.3734 153.07 22.9207 153.528 22.5851C153.986 22.2495 154.516 22.0817 155.117 22.0817C155.778 22.0817 156.324 22.2468 156.755 22.5771C157.186 22.902 157.466 23.3654 157.594 23.9674H157.649C157.825 23.3921 158.161 22.934 158.656 22.5931C159.156 22.2522 159.737 22.0817 160.397 22.0817C161.265 22.0817 161.968 22.3614 162.506 22.9207C163.044 23.4746 163.313 24.2017 163.313 25.102V31.1265H160.485V25.8211C160.485 25.347 160.376 24.9901 160.158 24.7504C159.945 24.5054 159.628 24.3828 159.207 24.3828C158.808 24.3828 158.488 24.516 158.249 24.7824C158.014 25.0487 157.897 25.4056 157.897 25.853V31.1265H155.197V25.7811C155.197 25.3337 155.085 24.9901 154.862 24.7504C154.643 24.5054 154.329 24.3828 153.919 24.3828C153.525 24.3828 153.206 24.5187 152.961 24.7903C152.721 25.062 152.601 25.4216 152.601 25.869V31.1265H149.774Z" fill="white"/>
<path d="M168.121 27.7866H170.908C170.962 28.1755 171.183 28.4924 171.571 28.7374C171.965 28.9825 172.437 29.105 172.985 29.105C173.55 29.105 174.005 28.9931 174.351 28.7694C174.697 28.5403 174.87 28.25 174.87 27.8985C174.87 27.5789 174.734 27.3312 174.463 27.1554C174.197 26.9743 173.733 26.8145 173.073 26.676L171.563 26.3804C170.504 26.1779 169.702 25.7971 169.159 25.2378C168.616 24.6732 168.344 23.9514 168.344 23.0725C168.344 21.9645 168.77 21.075 169.622 20.4038C170.48 19.7326 171.582 19.3971 172.929 19.3971C174.356 19.3971 175.477 19.7193 176.292 20.3638C177.112 21.0031 177.53 21.8686 177.546 22.9606H174.846C174.82 22.5451 174.633 22.2175 174.287 21.9778C173.941 21.7381 173.499 21.6183 172.961 21.6183C172.45 21.6183 172.037 21.7248 171.723 21.9379C171.414 22.151 171.26 22.4333 171.26 22.7848C171.26 23.0938 171.393 23.3441 171.659 23.5359C171.931 23.7223 172.37 23.8768 172.977 23.9993L174.471 24.279C175.605 24.4974 176.438 24.8729 176.971 25.4056C177.503 25.9382 177.77 26.66 177.77 27.5709C177.77 28.7161 177.33 29.6297 176.452 30.3115C175.573 30.988 174.391 31.3262 172.905 31.3262C171.43 31.3262 170.267 31.0146 169.415 30.3914C168.568 29.7681 168.137 28.8999 168.121 27.7866Z" fill="white"/>
<path d="M187.526 25.7172H184.93C184.882 25.2538 184.72 24.8862 184.443 24.6146C184.172 24.3376 183.823 24.1991 183.397 24.1991C182.875 24.1991 182.465 24.4175 182.167 24.8543C181.874 25.2857 181.727 25.893 181.727 26.676C181.727 27.4697 181.874 28.0822 182.167 28.5137C182.46 28.9398 182.87 29.1529 183.397 29.1529C183.828 29.1529 184.177 29.0277 184.443 28.7774C184.715 28.5217 184.877 28.1621 184.93 27.6987H187.534C187.492 28.8173 187.095 29.7016 186.344 30.3514C185.599 30.996 184.606 31.3182 183.365 31.3182C181.975 31.3182 180.878 30.9054 180.074 30.0798C179.27 29.2541 178.868 28.1195 178.868 26.676C178.868 25.2484 179.27 24.1192 180.074 23.2882C180.878 22.4572 181.97 22.0418 183.349 22.0418C184.584 22.0418 185.577 22.3773 186.328 23.0485C187.084 23.7197 187.484 24.6092 187.526 25.7172Z" fill="white"/>
<path d="M192.434 29.2808C192.903 29.2808 193.3 29.1556 193.625 28.9052C193.955 28.6495 194.12 28.3219 194.12 27.9224V27.3072L192.482 27.4191C192.083 27.4457 191.774 27.5416 191.556 27.7067C191.343 27.8718 191.236 28.0902 191.236 28.3619C191.236 28.6442 191.343 28.8679 191.556 29.0331C191.774 29.1982 192.067 29.2808 192.434 29.2808ZM191.436 31.2463C190.589 31.2463 189.876 30.996 189.295 30.4952C188.72 29.9892 188.433 29.342 188.433 28.5537C188.433 27.728 188.739 27.0862 189.351 26.6281C189.969 26.17 190.864 25.9036 192.035 25.829L194.12 25.7012V25.1898C194.12 24.833 194 24.5586 193.76 24.3669C193.526 24.1698 193.207 24.0712 192.802 24.0712C192.424 24.0712 192.112 24.1618 191.867 24.3429C191.622 24.5187 191.479 24.7477 191.436 25.03H188.888C188.925 24.1298 189.309 23.4081 190.038 22.8647C190.773 22.3161 191.74 22.0418 192.938 22.0418C194.12 22.0418 195.073 22.3188 195.797 22.8727C196.521 23.4214 196.883 24.1431 196.883 25.038V31.1265H194.136V29.848H194.08C193.846 30.2848 193.483 30.6284 192.994 30.8788C192.509 31.1238 191.99 31.2463 191.436 31.2463Z" fill="white"/>
<path d="M198.517 31.1265V19.0215H201.344V31.1265H198.517Z" fill="white"/>
<path d="M203.01 31.1265V22.2335H205.845V31.1265H203.01ZM204.423 21.4984C204.019 21.4984 203.675 21.3653 203.393 21.0989C203.111 20.8326 202.97 20.4997 202.97 20.1002C202.97 19.706 203.111 19.3757 203.393 19.1094C203.675 18.8377 204.019 18.7019 204.423 18.7019C204.828 18.7019 205.172 18.8377 205.454 19.1094C205.741 19.3757 205.885 19.706 205.885 20.1002C205.885 20.4997 205.744 20.8326 205.462 21.0989C205.18 21.3653 204.833 21.4984 204.423 21.4984Z" fill="white"/>
<path d="M207.454 31.1265V22.2335H210.202V23.9034H210.258C210.498 23.3122 210.86 22.8621 211.344 22.5531C211.829 22.2388 212.412 22.0817 213.094 22.0817C214.084 22.0817 214.859 22.3773 215.418 22.9686C215.982 23.5599 216.265 24.3802 216.265 25.4295V31.1265H213.429V26.0368C213.429 25.5201 213.293 25.1179 213.022 24.8303C212.756 24.5373 212.38 24.3908 211.896 24.3908C211.416 24.3908 211.028 24.5506 210.729 24.8702C210.431 25.1898 210.282 25.6027 210.282 26.1087V31.1265H207.454Z" fill="white"/>
<path d="M220.877 28.3459C221.181 28.7401 221.599 28.9372 222.131 28.9372C222.664 28.9372 223.082 28.7401 223.385 28.3459C223.694 27.9464 223.849 27.3898 223.849 26.676C223.849 25.9622 223.694 25.3949 223.385 24.9741C223.077 24.5533 222.659 24.3429 222.131 24.3429C221.604 24.3429 221.186 24.5533 220.877 24.9741C220.574 25.3896 220.422 25.9542 220.422 26.668C220.422 27.3871 220.574 27.9464 220.877 28.3459ZM222.083 34.4264C220.827 34.4264 219.804 34.1787 219.016 33.6833C218.228 33.1932 217.815 32.5354 217.778 31.7097H220.526C220.584 31.9601 220.763 32.1598 221.061 32.309C221.365 32.4635 221.721 32.5407 222.131 32.5407C222.648 32.5407 223.061 32.4155 223.369 32.1652C223.678 31.9201 223.833 31.5846 223.833 31.1584V29.4725H223.777C223.596 29.9466 223.26 30.3275 222.77 30.6151C222.286 30.8974 221.719 31.0386 221.069 31.0386C219.999 31.0386 219.141 30.6497 218.497 29.872C217.853 29.089 217.531 28.0157 217.531 26.652C217.531 25.2404 217.85 24.1325 218.489 23.3282C219.128 22.5185 220.004 22.1137 221.117 22.1137C221.745 22.1137 222.296 22.2681 222.77 22.5771C223.25 22.8807 223.593 23.2855 223.801 23.7916H223.849V22.2335H226.668V30.9507C226.668 32.0054 226.25 32.847 225.414 33.4755C224.578 34.1094 223.468 34.4264 222.083 34.4264Z" fill="white"/>
<path d="M66.8016 35L64.5296 35L64.5296 -1.43548e-06L66.8016 -1.2368e-06L66.8016 35Z" fill="white"/>
<path d="M4.33747 30.9685V8.727L21.3259 21.4202V30.9685H25.6634V20.5249C25.6634 19.7356 25.2898 18.9922 24.6546 18.5176L4.05159 3.1237C2.38413 1.87783 0 3.05895 0 5.13095V30.9685H4.33747Z" fill="white"/>
<path d="M51.3222 30.9685V8.727L34.3338 21.4202V30.9685H29.9963V20.5249C29.9963 19.7356 30.3699 18.9922 31.0051 18.5176L51.6081 3.1237C53.2755 1.87783 55.6597 3.05895 55.6597 5.13095V30.9685H51.3222Z" fill="white"/>
</svg>
